<svg width="558" height="471" viewBox="0 0 558 471" fill="none" xmlns="http://www.w3.org/2000/svg">
<path d="M43.9998 163.273H187.337C187.337 163.273 193.266 143.523 177.103 139.476C160.941 135.429 157.711 142.012 157.711 142.012C157.711 142.012 156.089 113.655 126.994 112.643C97.8988 111.631 90.3486 137.965 90.3486 137.965C90.3486 137.965 80.6452 122.262 62.8608 131.894C45.0763 141.513 50.4736 150.12 50.4736 150.12C50.4736 150.12 40.2246 153.142 43.9998 163.273Z" fill="white"/>
<path d="M180.436 140.682C178.932 146.946 174.626 153.987 163.182 156.163C141.077 160.391 137.553 143.44 137.553 143.44C137.553 143.44 135.945 159.171 110.33 160.709C84.7006 162.248 80.2175 150.564 80.2175 150.564C80.2175 150.564 73.8175 160.086 59.0856 157.674C53.2754 156.732 49.6035 154.306 47.244 151.742C44.6191 153.558 41.6993 157.092 43.9997 163.287H187.337C187.323 163.273 192.366 146.461 180.436 140.682Z" fill="#D9EFF9"/>
<path d="M432.764 353.305C501.882 288.343 501.882 183.018 432.764 118.056C363.646 53.0939 251.583 53.0939 182.465 118.056C113.347 183.018 113.347 288.343 182.465 353.305C251.583 418.267 363.646 418.267 432.764 353.305Z" fill="#67AEE5"/>
<path d="M181.984 118.533C176.661 126.073 171.087 136.635 170.762 148.166C170.113 170.578 184.506 166.946 191.82 166.946C199.12 166.946 202.349 179.06 213.306 180.266C224.263 181.472 230.058 180.266 242.313 188.748C254.553 197.23 261.646 208.138 269.388 207.528C277.115 206.919 277.764 189.358 286.789 192.379C295.814 195.415 304.19 203.287 297.746 214.791C291.301 226.295 294.841 237.813 293.72 240.238C292.599 242.664 277.13 252.961 266.173 257.799C255.216 262.65 240.396 272.338 242.328 279.6C244.259 286.863 251.353 297.771 264.241 312.92C277.13 328.069 272.617 314.736 282.925 330.48C293.233 346.225 284.208 348.651 305.488 365.616C326.752 382.58 326.266 378.935 337.798 384.396C349.315 389.843 357.057 375.304 361.569 364.41C366.082 353.502 356.408 328.069 361.569 317.161C366.731 306.253 383.483 291.714 390.576 282.636C397.669 273.544 396.371 251.714 386.712 246.281C377.038 240.848 366.731 235.997 359.003 231.756C351.276 227.515 325.174 231.146 317.919 228.72C310.664 226.295 306.151 223.869 310.664 219.032C315.176 214.181 320.972 191.77 328.065 191.77C335.158 191.77 372.541 180.266 380.917 173.599C389.293 166.932 387.332 154.819 395.088 142.705C402.83 130.592 416.368 111.811 416.368 111.811L413.566 102.359C384.043 81.6103 347.398 69.3304 307.685 69.3304C258.505 69.3304 214.058 88.1522 181.984 118.533Z" fill="#1F5072"/>
<path d="M386.27 338.353C295.165 338.353 221.299 268.942 221.299 183.301C221.299 147.487 234.246 114.542 255.939 88.3047C189.505 108.332 141.387 166.849 141.387 235.941C141.387 321.569 215.238 390.993 306.358 390.993C359.372 390.993 406.502 367.473 436.674 330.952C420.792 335.747 403.848 338.353 386.27 338.353Z" fill="#67AEE5"/>
<path opacity="0.56" d="M444.477 189.821C454.163 180.717 445.088 157.426 424.206 137.8C403.325 118.174 378.544 109.644 368.858 118.748C359.171 127.852 368.247 151.143 389.129 170.769C410.01 190.395 434.791 198.925 444.477 189.821Z" fill="white"/>
<path d="M0.733032 197.591L348.917 287.32L444.416 452.712L0.733032 197.591Z" fill="white"/>
<path d="M195.389 186.239C190.921 187.21 185.538 186.253 182.663 185.297C181.232 184.812 180.318 184.133 179.728 183.467H179.713C179.713 183.467 176.734 182.65 175.466 187.556C174.198 192.463 177.295 194.445 182.515 194.708C187.735 194.971 194.43 196.829 196.082 193.641C197.748 190.467 195.389 186.239 195.389 186.239Z" fill="#CC6D74"/>
<path d="M352.677 266.129L407.564 214.749L0.733032 197.591L352.677 266.129Z" fill="white"/>
<path d="M348.917 287.32L352.677 266.129L0.733032 197.591L348.917 287.32Z" fill="#B5D4E5"/>
<path d="M110.522 325.158L22.8235 210.3L374.974 412.781L110.522 325.158Z" fill="#B5D4E5"/>
<path d="M187.234 121.499C187.234 121.499 184.698 128.914 181.601 141.375C178.504 153.835 175.673 155.248 174.272 167.93C172.856 180.612 186.113 200.488 217.701 201.278C249.288 202.068 267.043 186.697 267.043 186.697C267.043 186.697 272.971 190.411 279.445 185.103C285.934 179.808 287.054 165.491 279.445 162.58C271.836 159.67 267.603 167.612 265.627 171.589C263.651 175.567 260.274 177.424 260.274 177.424C260.274 177.424 265.627 164.964 259.714 155.165C253.786 145.352 219.102 129.718 213.749 109.843C213.734 109.829 196.539 119.905 187.234 121.499Z" fill="#D8A580"/>
<path d="M229.454 85.9762C229.454 85.9762 211.492 75.11 190.626 97.9097C170.777 119.587 169.568 139.102 178.46 151.451C179.433 148.817 180.495 145.796 181.601 141.389C184.698 128.928 187.234 121.513 187.234 121.513C196.539 119.919 213.749 109.857 213.749 109.857C219.102 129.732 253.786 145.366 259.714 155.179C265.642 164.992 260.274 177.438 260.274 177.438C260.274 177.438 263.651 175.581 265.627 171.603C267.603 167.625 271.836 159.67 279.445 162.594C287.054 165.505 285.934 179.822 279.445 185.117C272.957 190.411 267.043 186.711 267.043 186.711C267.043 186.711 264.197 189.164 258.77 192.061C258.77 192.061 258.859 194.93 262.811 196.246C266.763 197.577 275.508 198.894 280.005 195.193C284.518 191.479 303.482 173.322 304.264 140.515C305.03 107.986 275.331 79.0878 229.454 85.9762Z" fill="#422F20"/>
<path d="M280.197 173.447C280.33 172.075 280.02 170.716 279.283 169.649C278.56 168.61 277.484 167.598 276.393 167.57C275.301 167.487 274.357 168.346 273.797 169.4C273.237 170.481 273.016 171.742 272.971 173.017L272.057 172.199C273.443 172.172 274.785 172.324 276.053 173.1C276.673 173.488 277.204 174.07 277.469 174.763C277.705 175.443 277.705 176.149 277.616 176.745C277.484 177.951 276.953 179.282 275.817 180.044C274.682 180.792 273.281 180.848 272.116 180.515C273.325 180.529 274.564 180.252 275.316 179.49C276.083 178.755 276.334 177.716 276.348 176.676C276.378 175.595 276.053 174.805 275.198 174.361C274.387 173.918 273.207 173.765 272.175 173.807L271.261 173.849V172.989C271.261 171.534 271.57 170.051 272.308 168.665C272.691 167.986 273.222 167.348 273.959 166.863C274.667 166.378 275.64 166.101 276.555 166.239C277.469 166.378 278.251 166.849 278.796 167.404C279.342 167.958 279.77 168.582 280.094 169.261C280.669 170.633 280.728 172.158 280.197 173.447Z" fill="#A06747"/>
<path d="M214.309 201.111C175.511 192.393 178.548 168.208 183.031 154.292C187.514 140.377 187.603 130.342 191.717 124.507C193.87 121.458 199.769 117.591 204.93 114.597C199.297 117.438 192.16 120.668 187.219 121.513C187.219 121.513 184.683 128.928 181.586 141.389C178.489 153.849 175.658 155.262 174.257 167.944C172.9 180.141 185.17 199.032 214.309 201.111Z" fill="#C18E6B"/>
<path d="M194.357 150.592C192.823 154.819 189.505 157.577 186.969 156.759C184.432 155.941 183.621 151.853 185.155 147.625C186.689 143.398 190.007 140.64 192.543 141.458C195.079 142.276 195.905 146.364 194.357 150.592Z" fill="black"/>
<path d="M225.782 160.002C224.248 164.23 220.93 166.988 218.394 166.17C215.857 165.352 215.046 161.264 216.58 157.036C218.114 152.809 221.432 150.051 223.968 150.869C226.504 151.686 227.316 155.775 225.782 160.002Z" fill="black"/>
<path d="M187.367 162.982L212.893 170.675C212.893 170.675 210.637 183.925 195.831 180.585C181.571 177.355 187.367 162.982 187.367 162.982Z" fill="#B24750"/>
<path d="M195.876 180.585C210.652 183.897 212.893 170.661 212.893 170.661C200.123 167.279 196.761 175.761 195.876 180.585Z" fill="#E38386"/>
<path d="M239.26 179.919C238.228 183.315 232.905 184.867 227.36 183.384C221.815 181.901 218.158 177.951 219.175 174.542C220.208 171.146 225.531 169.594 231.076 171.077C236.621 172.573 240.293 176.524 239.26 179.919Z" fill="#CC7C54"/>
<path d="M177.339 154.431C176.13 157.743 175.112 161.07 174.405 166.738C179.138 167.376 183.297 165.81 184.196 162.844C185.14 159.739 182.132 156.149 177.339 154.431Z" fill="#CC7C54"/>
<path d="M194.652 131.922C194.652 131.922 192.941 132.185 189.756 133.682C186.571 135.179 185.155 132.892 187.603 130.328C190.051 127.764 194.932 126.877 196.628 129.095C198.324 131.312 194.652 131.922 194.652 131.922Z" fill="#422F20"/>
<path d="M228.215 142.969C228.215 142.969 229.675 143.842 231.976 146.406C234.276 148.97 236.532 147.376 235.353 144.119C234.173 140.862 230.058 138.242 227.581 139.642C225.104 141.056 228.215 142.969 228.215 142.969Z" fill="#422F20"/>
<path d="M275.522 197.189C271.054 198.159 265.672 197.203 262.796 196.246C261.366 195.761 260.451 195.082 259.861 194.417H259.847C259.847 194.417 256.868 193.599 255.6 198.506C254.331 203.412 257.428 205.394 262.649 205.657C267.869 205.921 274.564 207.778 276.215 204.604C277.897 201.402 275.537 197.189 275.522 197.189Z" fill="#E38386"/>
<path d="M319.585 242.442C319.777 227.071 304.544 220.349 287.629 217.521C270.715 214.694 274.092 206.142 274.092 206.142C271.261 206.919 266.556 205.838 262.663 205.643C260.097 205.519 258.062 204.964 256.779 203.869C250.763 211.492 247.017 224.424 251.338 236.787C255.659 249.15 274.092 249.51 283.486 248.804C292.879 248.097 298.719 245.269 298.719 245.269C318.081 242.968 314.129 263.121 314.129 263.121C314.129 263.121 319.394 257.813 319.585 242.442Z" fill="#422F20"/>
<path d="M239.437 231.506C239.629 216.135 224.396 209.413 207.481 206.586C190.567 203.758 193.944 195.207 193.944 195.207C191.113 195.983 186.408 194.902 182.515 194.708C179.949 194.583 177.914 194.029 176.631 192.934C170.615 200.557 166.869 213.488 171.19 225.851C175.51 238.214 193.944 238.575 203.337 237.868C212.731 237.161 218.571 234.334 218.571 234.334C237.933 232.033 233.981 252.185 233.981 252.185C233.981 252.185 239.246 246.877 239.437 231.506Z" fill="#302117"/>
<path d="M199.548 198.284L174.405 203.869C174.405 203.869 173.313 210.813 176.897 214.001C180.465 217.175 210.18 209.233 210.18 209.233L214.324 201.111C208.794 200.709 203.883 199.725 199.548 198.284Z" fill="#CC6D74"/>
<path d="M174.405 203.869L137.228 212.767C137.228 212.767 129.059 212.407 123.322 213.793C114.946 215.817 114.046 218.45 118.058 219.905C122.231 221.416 126.05 221.998 126.05 221.998L138.364 223.717L176.897 214.001C173.313 210.813 174.405 203.869 174.405 203.869Z" fill="#C18E6B"/>
<path d="M192.867 207.639C192.867 207.639 214.221 197.258 229.218 197.605C244.215 197.937 250.394 208.707 247.017 222.483C243.64 236.26 224.735 257.466 224.735 257.466L155.367 241.569L204.385 234.68C204.385 234.666 184.978 228.845 192.867 207.639Z" fill="#E38386"/>
<path d="M192.867 207.639L146.061 218.769C146.061 218.769 138.216 215.858 136.093 216.648C130.061 218.88 138.349 223.717 138.349 223.717C138.349 223.717 124.811 227.598 126.124 230.785C127.436 233.959 134.766 233.502 134.766 233.502C134.766 233.502 130.253 234.375 130.813 237.729C131.374 241.083 141.343 239.448 141.343 239.448C137.39 241.569 137.966 243.869 141.343 243.162C144.72 242.456 153.568 241.569 153.568 241.569L204.37 234.68C204.385 234.666 184.978 228.845 192.867 207.639Z" fill="#D8A580"/>
<path d="M362.071 287.32C376.596 285.782 390.886 284.188 405.013 282.054C419.096 279.891 433.046 277.217 446.259 273.059C449.563 272.047 452.807 270.869 455.963 269.594C459.133 268.346 462.215 266.932 465.165 265.366C471.063 262.234 476.46 258.436 480.752 253.752C485.043 249.067 488.125 243.398 489.526 237.092C490.293 233.946 490.588 230.675 490.691 227.334C490.75 223.994 490.44 220.612 490.101 217.189C491.561 220.335 492.77 223.634 493.552 227.071C494.334 230.508 494.658 234.07 494.584 237.674C494.407 244.909 491.738 252.269 487.255 258.395C482.787 264.562 476.696 269.455 470.208 273.322C463.675 277.161 456.671 280.044 449.563 282.317C435.288 286.794 420.541 288.887 405.868 289.677C391.195 290.342 376.478 289.829 362.071 287.32Z" fill="white"/>
<path d="M379.56 303.052C397.182 304.673 414.642 305.99 432.014 306.267C440.685 306.378 449.327 306.267 457.85 305.602C466.359 304.923 474.794 303.814 482.728 301.666C486.695 300.612 490.544 299.282 494.098 297.591C497.681 295.941 500.969 293.89 503.757 291.437C506.558 288.998 508.815 286.115 510.496 282.899C512.162 279.67 513.194 276.094 513.681 272.352C514.684 264.84 513.534 256.828 511.558 248.97C509.64 241.056 506.691 233.28 503.639 225.463C508.741 232.296 513.003 239.67 516.409 247.528C519.727 255.387 522.116 263.897 521.821 272.934C521.659 277.424 520.774 282.04 518.857 286.378C516.999 290.73 514.094 294.736 510.614 298.062C503.535 304.77 494.481 308.582 485.574 311.035C476.578 313.433 467.45 314.458 458.425 314.819C449.371 315.165 440.39 314.763 431.513 313.904C422.62 313.031 413.831 311.672 405.146 309.885C396.489 308.013 387.892 305.948 379.56 303.052Z" fill="white"/>
<path d="M229.454 85.9762C229.454 85.9762 211.492 75.11 190.626 97.9097C170.777 119.587 169.568 139.102 178.46 151.451C179.433 148.817 180.495 145.796 181.601 141.388C184.698 128.928 187.234 121.513 187.234 121.513C190.788 120.903 195.507 119.06 199.961 117.009C194.976 103.052 209.03 86.4891 229.454 85.9762Z" fill="#302117"/>
<path d="M314.38 261.167C317.934 230.411 286.346 242.705 268.945 235.955C255.26 230.647 257.517 212.989 259.272 205.131C258.269 204.84 257.428 204.424 256.794 203.869C250.778 211.492 247.032 224.424 251.353 236.787C255.673 249.15 274.107 249.51 283.5 248.804C292.894 248.097 298.734 245.269 298.734 245.269C314.336 243.426 314.778 256.163 314.38 261.167Z" fill="#302117"/>
<path d="M264.359 205.782C262.014 201.818 263.179 198.727 264.669 196.759C263.976 196.593 263.342 196.413 262.796 196.233C261.366 195.747 260.451 195.068 259.861 194.403H259.847C259.847 194.403 256.868 193.585 255.6 198.492C254.332 203.398 257.428 205.38 262.649 205.643C263.209 205.671 263.784 205.727 264.359 205.782Z" fill="#CC6D74"/>
<path d="M195.595 229.025L134.618 239.753C137.641 240.044 141.357 239.434 141.357 239.434C137.405 241.555 137.98 243.856 141.357 243.149C144.734 242.442 153.582 241.555 153.582 241.555L204.384 234.666C204.384 234.666 199.474 233.197 195.595 229.025Z" fill="#C18E6B"/>
<path d="M204.384 234.666L181.232 247.126L154.541 241.43L204.384 234.666Z" fill="#CC6D74"/>
<path d="M238.597 85.0753C235.633 85.2278 232.58 85.505 229.454 85.9762C229.454 85.9762 224.514 82.9963 216.801 83.4398C249.288 85.2416 285.727 136.635 301.196 160.945C302.922 154.916 304.087 148.097 304.264 140.501C304.47 131.617 302.391 123.024 298.35 115.346C293.351 113.835 287.467 112.019 280.566 109.843C260.053 103.398 246.28 92.6013 238.597 85.0753Z" fill="#634937"/>
<path d="M22.8235 210.3L264.669 376.232L374.974 412.781L22.8235 210.3Z" fill="#99BECE"/>
<path d="M382.288 101.292H517.53C517.53 101.292 526.688 96.7316 521.836 83.0656C516.984 69.3858 500.276 76.9949 500.276 76.9949C500.276 76.9949 500.822 57.2444 484.645 54.7081C468.483 52.1717 465.253 67.8751 465.253 67.8751C465.253 67.8751 462.554 49.6492 438.857 49.1363C415.159 48.6235 405.986 72.435 405.986 72.435C405.986 72.435 393.053 65.3387 382.274 75.2208C371.509 85.0892 382.288 101.292 382.288 101.292Z" fill="white"/>
<path d="M521.851 83.0656C521.055 80.8341 519.948 79.1709 518.651 77.9513C520.465 88.7898 511.823 97.1612 497.887 97.1612C481.076 97.1612 473.143 84.9644 473.143 84.9644C473.143 84.9644 466.654 96.4821 449.356 93.9318C432.058 91.3955 430.864 78.1869 430.864 78.1869C430.864 78.1869 425.334 97.6047 398.672 93.3081C386.432 91.34 380.74 86.4752 378.13 81.7766C375.431 90.9658 382.274 101.278 382.274 101.278H517.515C517.53 101.292 526.702 96.7316 521.851 83.0656Z" fill="#D9EFF9"/>
<path d="M304.146 48.4988C308.039 49.0532 311.932 49.5521 315.825 50.0372C317.034 50.1897 318.244 49.7323 318.583 48.5127C318.863 47.5147 318.185 46.0733 316.961 45.9208C315.176 45.6991 313.407 45.4496 311.622 45.214C312.669 44.6318 313.643 43.925 314.527 43.135C316.872 41.0421 318.612 38.1869 319.261 35.1932C319.659 33.4052 319.792 31.4787 318.848 29.8155C318.008 28.3325 316.385 27.2375 314.645 26.8495C311.106 26.0594 306.151 27.7365 305.266 31.3678C304.632 34.0289 308.997 35.11 309.631 32.435C310.015 30.855 313.303 30.4669 314.498 31.3817C315.81 32.3935 314.675 35.2625 314.055 36.5099C313.112 38.381 311.696 40.058 309.853 41.2084C307.641 42.5944 305.075 43.232 303.069 44.9229C301.904 45.9624 302.509 48.2632 304.146 48.4988Z" fill="#1F5072"/>
<path d="M362.66 55.7891C366.554 56.3435 370.447 56.8425 374.34 57.3276C375.549 57.4801 376.758 57.0227 377.097 55.803C377.378 54.8051 376.699 53.3636 375.475 53.2112C373.691 52.9894 371.921 52.7399 370.137 52.5043C371.184 51.9222 372.157 51.2153 373.042 50.4253C375.387 48.3324 377.127 45.4773 377.776 42.4835C378.174 40.6956 378.307 38.7691 377.363 37.1197C376.522 35.6367 374.9 34.5418 373.16 34.1537C369.621 33.3637 364.666 35.0407 363.781 38.672C363.147 41.3332 367.512 42.4142 368.146 39.7393C368.53 38.1592 371.818 37.7711 373.013 38.6859C374.325 39.6977 373.19 42.5667 372.57 43.8141C371.626 45.6852 370.211 47.3623 368.367 48.5126C366.155 49.8986 363.589 50.5362 361.584 52.2271C360.419 53.2528 361.024 55.5535 362.66 55.7891Z" fill="#1F5072"/>
<path d="M335.187 44.1467C336.323 44.2438 337.458 44.3269 338.609 44.424C338.387 46.1287 338.137 47.8196 337.812 49.5244C337.606 50.6194 338.166 51.8668 339.435 52.1162C340.555 52.338 341.971 51.7698 342.192 50.5917C342.561 48.6651 342.856 46.7247 343.106 44.7843C344.301 44.8813 345.495 44.9784 346.69 45.0754C347.87 45.1724 348.976 43.9943 348.917 42.9271C348.843 41.6797 347.899 40.9312 346.631 40.8342C345.599 40.7511 344.581 40.6679 343.549 40.5847C343.667 39.074 343.77 37.5633 343.829 36.0387C343.858 34.9299 342.723 33.8765 341.543 33.9458C340.275 34.0151 339.361 34.9021 339.317 36.0941C339.272 37.4801 339.184 38.8522 339.081 40.2105C337.768 40.0996 336.47 40.0026 335.158 39.8917C333.978 39.7947 332.872 40.9728 332.931 42.04C332.975 43.2874 333.919 44.0359 335.187 44.1467Z" fill="#1F5072"/>
<path d="M120.992 382.4C119.857 382.733 118.721 383.065 117.586 383.412C117.07 381.943 116.539 380.473 115.964 379.018C115.551 377.979 113.943 377.521 112.94 378.034C111.79 378.63 111.451 379.753 111.893 380.875C112.395 382.123 112.852 383.398 113.294 384.687C112.188 385.02 111.097 385.338 109.991 385.671C108.87 386.004 107.897 386.96 108.207 388.166C108.472 389.178 109.652 390.203 110.861 389.843C112.1 389.482 113.339 389.108 114.577 388.748C115.064 390.439 115.536 392.144 115.934 393.876C116.185 394.957 117.379 395.83 118.588 395.553C119.753 395.29 120.638 394.223 120.373 393.058C119.945 391.187 119.429 389.33 118.883 387.473C119.871 387.182 120.874 386.891 121.862 386.586C122.983 386.253 123.956 385.297 123.647 384.091C123.381 383.065 122.201 382.04 120.992 382.4Z" fill="#1F5072"/>
<path d="M71.6202 108.804C70.529 109.233 69.423 109.663 68.3317 110.093C67.6828 108.665 67.0045 107.251 66.2967 105.851C65.7806 104.854 64.1437 104.535 63.1999 105.131C62.1086 105.81 61.8874 106.974 62.433 108.041C63.0524 109.247 63.6275 110.467 64.2026 111.714C63.1409 112.13 62.0644 112.546 61.0026 112.962C59.9113 113.391 59.0413 114.417 59.469 115.595C59.8229 116.579 61.1058 117.494 62.2708 117.036C63.4653 116.565 64.6745 116.094 65.869 115.623C66.5179 117.258 67.1372 118.921 67.7124 120.612C68.0663 121.666 69.3345 122.428 70.5142 122.054C71.6497 121.693 72.4313 120.557 72.0479 119.42C71.4433 117.591 70.7502 115.775 70.0276 113.987C70.9861 113.613 71.9447 113.239 72.9032 112.865C73.9944 112.435 74.8645 111.409 74.4369 110.231C74.0534 109.261 72.7852 108.346 71.6202 108.804Z" fill="#1F5072"/>
<path d="M236.812 56.3574C233.008 56.8841 229.218 57.4246 225.413 57.9513C224.794 58.0345 224.278 58.1453 223.821 58.5889C223.437 58.9631 223.142 59.5729 223.186 60.0996C223.245 61.1253 224.219 62.3726 225.472 62.1925C229.277 61.6658 233.067 61.1253 236.871 60.5986C237.491 60.5154 238.007 60.4045 238.464 59.961C238.847 59.5868 239.142 58.977 239.098 58.4503C239.039 57.4246 238.066 56.1772 236.812 56.3574Z" fill="#1F5072"/>
<path d="M497.71 148.734C501.545 148.637 505.394 148.554 509.228 148.457C510.407 148.429 511.528 147.459 511.454 146.309C511.381 145.172 510.437 144.188 509.169 144.216C505.335 144.313 501.486 144.396 497.651 144.493C496.472 144.521 495.351 145.491 495.425 146.641C495.498 147.792 496.442 148.776 497.71 148.734Z" fill="#1F5072"/>
<path d="M462.171 376.218C459.34 375.276 455.535 376.413 454.473 379.171C454.149 380.03 454.886 381 455.756 381.222C456.759 381.471 457.614 380.875 457.939 380.016C458.086 379.628 459.059 379.392 459.502 379.309C460.239 379.185 461.124 379.254 461.699 379.753C462.835 380.737 461.507 382.927 460.859 383.897C459.974 385.241 458.72 386.322 457.246 387.071C455.432 387.986 453.323 388.18 451.598 389.288C450.344 390.106 450.536 391.95 452.07 392.352C455.063 393.142 458.071 393.904 461.095 394.625C463.321 395.165 464.221 391.908 461.994 391.367C460.696 391.049 459.399 390.716 458.086 390.383C458.971 390.023 459.797 389.566 460.564 389.025C462.687 387.514 464.265 385.505 465.15 383.135C465.651 381.804 465.917 380.307 465.342 378.963C464.796 377.646 463.601 376.69 462.171 376.218Z" fill="#1F5072"/>
<path d="M507.37 387.306C504.538 386.364 500.733 387.5 499.672 390.259C499.347 391.118 500.085 392.088 500.955 392.31C501.957 392.559 502.813 391.963 503.137 391.104C503.285 390.716 504.258 390.48 504.7 390.397C505.438 390.273 506.323 390.342 506.898 390.841C508.033 391.825 506.706 394.015 506.057 394.985C505.172 396.329 503.919 397.41 502.444 398.159C500.63 399.074 498.521 399.268 496.796 400.39C495.543 401.208 495.734 403.051 497.268 403.453C500.262 404.243 503.27 405.006 506.293 405.726C508.52 406.267 509.419 403.01 507.193 402.469C505.895 402.151 504.597 401.818 503.285 401.485C504.169 401.125 504.995 400.668 505.762 400.127C507.886 398.616 509.464 396.607 510.348 394.236C510.85 392.906 511.115 391.409 510.54 390.065C509.994 388.748 508.8 387.792 507.37 387.306Z" fill="#1F5072"/>
<path d="M486.267 390.217C485.382 390.037 484.512 389.871 483.627 389.69C483.863 388.595 484.085 387.5 484.262 386.392C484.409 385.532 483.996 384.548 482.979 384.34C482.109 384.16 480.958 384.618 480.796 385.546C480.604 386.697 480.368 387.847 480.132 388.997C479.203 388.817 478.274 388.623 477.345 388.443C476.431 388.263 475.369 388.734 475.163 389.649C474.971 390.508 475.458 391.506 476.446 391.7C477.404 391.894 478.378 392.088 479.336 392.282C478.968 393.668 478.569 395.04 478.127 396.412C477.847 397.258 478.496 398.284 479.41 398.464C480.398 398.658 481.297 398.159 481.592 397.258C482.064 395.844 482.462 394.417 482.846 392.989C483.686 393.155 484.527 393.322 485.368 393.488C486.282 393.668 487.344 393.197 487.55 392.282C487.742 391.409 487.24 390.411 486.267 390.217Z" fill="#1F5072"/>
<path d="M511.985 378.963C500.38 375.636 488.405 373.779 476.564 371.381C470.665 370.189 464.781 368.831 459.03 367.085C456.833 366.419 453.662 364.631 451.347 365.657C450.226 366.156 449.754 367.099 449.282 368.11C448.619 369.552 447.955 370.979 447.247 372.393C445.168 376.579 442.853 380.654 440.346 384.631C440.272 382.4 440.243 380.155 440.287 377.909C440.331 375.747 436.748 375.803 436.718 377.951C436.644 381.998 436.762 386.059 437.087 390.092C437.22 391.769 439.446 392.324 440.434 390.896C443.546 386.364 446.392 381.679 448.928 376.856C450.197 374.444 451.391 371.991 452.527 369.51C452.733 369.067 452.777 368.748 453.131 368.72C453.677 368.679 454.517 369.164 455.034 369.33C456.42 369.787 457.806 370.231 459.207 370.633C470.06 373.835 481.297 375.65 492.431 377.84C498.713 379.074 504.98 380.432 511.115 382.192C513.283 382.857 514.182 379.6 511.985 378.963Z" fill="#1F5072"/>
<path d="M98.8868 399.656C98.1642 399.905 97.4564 400.182 96.7486 400.446C95.0674 394.805 93.0766 389.261 90.7909 383.814C90.0388 382.012 87.3254 382.455 86.6323 384.022C85.7033 386.142 84.7742 388.249 83.8599 390.37C83.4028 391.423 84.1107 392.712 85.2167 393.086C86.4111 393.488 87.6351 392.864 88.107 391.811C88.2987 391.381 88.4757 390.966 88.6674 390.536C90.1125 394.347 91.425 398.2 92.5752 402.109C92.59 402.151 92.6047 402.178 92.6195 402.22C91.3807 402.788 90.142 403.384 88.9328 404.022C87.9005 404.562 87.2812 405.81 87.8858 406.863C88.4462 407.819 89.8028 408.429 90.9088 407.847C94.1089 406.156 97.4269 404.701 100.863 403.495C101.969 403.107 102.456 401.596 101.91 400.654C101.291 399.545 100.081 399.226 98.8868 399.656Z" fill="#1F5072"/>
<path d="M151.414 382.331C150.692 382.58 149.984 382.857 149.276 383.121C147.595 377.48 145.604 371.936 143.319 366.489C142.566 364.687 139.853 365.13 139.16 366.697C138.231 368.817 137.302 370.924 136.388 373.045C135.93 374.098 136.638 375.387 137.744 375.761C138.939 376.163 140.163 375.539 140.635 374.486C140.826 374.056 141.003 373.641 141.195 373.211C142.64 377.022 143.953 380.875 145.103 384.784C145.118 384.825 145.132 384.853 145.147 384.895C143.908 385.463 142.67 386.059 141.46 386.697C140.428 387.237 139.809 388.485 140.413 389.538C140.974 390.494 142.331 391.104 143.437 390.522C146.637 388.831 149.955 387.376 153.391 386.17C154.497 385.782 154.983 384.271 154.438 383.329C153.818 382.22 152.609 381.915 151.414 382.331Z" fill="#1F5072"/>
<path d="M230.442 55.6921C233.347 55.6506 233.288 51.4094 230.383 51.451C227.463 51.4926 227.522 55.7337 230.442 55.6921Z" fill="#1F5072"/>
<path d="M232.388 62.9825C229.483 63.0241 229.542 67.2652 232.447 67.2237C235.353 67.1821 235.294 62.9409 232.388 62.9825Z" fill="#1F5072"/>
<path d="M222.051 396.787L116.598 433.724L232.064 462.261L222.051 396.787ZM211.551 415.331L215.813 445.435L152.491 433.058L211.551 415.331Z" fill="#67AEE5"/>
<path d="M209.118 416.052L213.306 444.936L215.813 445.435L211.551 415.331L209.118 416.052Z" fill="#4B96C9"/>
<path d="M222.051 396.787L217.332 396.565L114.238 432.601L116.598 433.724L222.051 396.787Z" fill="#4B96C9"/>
<path d="M351.83 440.037L350.67 429.574L287.939 435.716L289.099 446.179L351.83 440.037Z" fill="#1F5072"/>
<path d="M355.454 440.343L354.143 428.516L350.608 428.862L351.919 440.689L355.454 440.343Z" fill="#1F5072"/>
<path d="M363.531 432.449L354.284 429.843L355.302 438.935L363.796 434.832L363.531 432.449Z" fill="#1F5072"/>
<path d="M346.013 440.602L344.854 430.139L340.938 430.522L342.097 440.985L346.013 440.602Z" fill="#103447"/>
<path d="M302.015 444.923L300.856 434.46L296.94 434.843L298.099 445.306L302.015 444.923Z" fill="#103447"/>
<path d="M432.518 27.9842L435.138 38.2115L496.457 24.3342L493.836 14.1069L432.518 27.9842Z" fill="#1F5072"/>
<path d="M428.901 28.1239L431.863 39.6852L435.318 38.9032L432.356 27.342L428.901 28.1239Z" fill="#1F5072"/>
<path d="M422.031 36.9673L431.542 38.3949L429.271 29.5106L421.426 34.6388L422.031 36.9673Z" fill="#1F5072"/>
<path d="M438.213 26.6917L440.833 36.9189L444.661 36.0526L442.041 25.8254L438.213 26.6917Z" fill="#103447"/>
<path d="M481.227 16.9583L483.847 27.1855L487.675 26.3192L485.055 16.0919L481.227 16.9583Z" fill="#103447"/>
<path d="M116.878 37.1474C77.5926 51.9915 87.9006 91.9915 87.9006 91.9915L175.746 64.119C175.746 64.119 156.163 22.3034 116.878 37.1474ZM120.815 47.8612C147.595 38.0761 158.758 60.557 158.758 60.557L99.1228 79.4759C99.1228 79.4759 94.0352 57.6464 120.815 47.8612Z" fill="#67AEE5"/>
<path d="M117.527 50.4946C140.281 42.1786 151.754 57.1613 154.703 61.846L158.758 60.557C158.758 60.557 147.58 38.0761 120.815 47.8612C114.961 50.0095 110.625 52.7261 107.425 55.6644C110.153 53.7379 113.471 51.9777 117.527 50.4946Z" fill="#5598C6"/>
</svg>
