<svg width="607" height="198" viewBox="0 0 607 198" fill="none" xmlns="http://www.w3.org/2000/svg">
<g clip-path="url(#clip0)">
<path d="M466.68 86.11C466.627 98.5269 462.896 110.65 455.959 120.948C449.021 131.247 439.188 139.259 427.701 143.974C416.214 148.689 403.588 149.895 391.416 147.439C379.244 144.984 368.072 138.978 359.311 130.179C350.549 121.38 344.591 110.183 342.188 98.0005C339.786 85.8182 341.046 73.197 345.81 61.7302C350.574 50.2634 358.628 40.4651 368.956 33.572C379.284 26.6789 391.423 23.0001 403.84 23C420.54 23.0424 436.54 29.7137 448.323 41.5477C460.107 53.3817 466.709 69.41 466.68 86.11Z" fill="#49841A"/>
<path d="M341 86.11C340.984 97.0702 343.828 107.845 349.25 117.37C354.436 118.714 359.773 119.387 365.13 119.37C376.152 119.311 386.968 116.369 396.501 110.837C406.034 105.304 413.954 97.3729 419.474 87.8317C424.993 78.2905 427.919 67.4712 427.963 56.4487C428.006 45.4262 425.164 34.5842 419.72 25C410.402 22.5722 400.65 22.3175 391.217 24.2553C381.785 26.1932 372.923 30.2719 365.317 36.1769C357.71 42.0818 351.562 49.6552 347.346 58.3127C343.13 66.9702 340.959 76.4805 341 86.11Z" fill="#55931F"/>
<path d="M450.34 139.43C448.89 151 437.34 159.06 424.53 157.43C411.72 155.8 402.54 145.17 404 133.6C405.46 122.03 417 114 429.8 115.59C442.6 117.18 451.8 127.87 450.34 139.43Z" fill="#55931F"/>
<path d="M413.73 151L405.73 158.33V127.41L414.18 114.41L413.74 113.56L405.74 120.88V105.14C405.74 104.61 405.529 104.101 405.154 103.726C404.779 103.351 404.27 103.14 403.74 103.14C403.21 103.14 402.701 103.351 402.326 103.726C401.951 104.101 401.74 104.61 401.74 105.14V120.88L393.74 115.08L393.49 115.65L401.78 126.86V187H405.7V164.91L414.15 151.91L413.73 151Z" fill="#50336E"/>
</g>
<path d="M341 183.21H0V187H341V183.21Z" fill="#6C3D26"/>
<path d="M133.102 44.5631V86.6122L161.526 104.096V44.5631H133.102Z" fill="#05A083"/>
<path d="M38.151 111.128L32.2513 111.448L47.4836 51.5079L59.2938 104.096V183.21H39.495L38.151 111.128Z" fill="#00B093"/>
<path d="M207.385 8.04167L161.526 44.5631V183.21H305.796V53.012L207.385 8.04167Z" fill="#41E5C6"/>
<path d="M151.238 23.3648L210.246 0L161.526 40.1215L127.37 40.1812L151.238 23.3648Z" fill="#148496"/>
<path d="M161.526 75.6764L52.9515 75.861L47.4836 51.5079H140.087L161.526 75.6764Z" fill="#7CDCF2"/>
<path d="M31.107 111.362H38.151L49.8694 62.1288L47.4836 51.5079L31.107 111.362Z" fill="#2F3F60"/>
<path d="M207.385 8.04167L305.796 53.012H315.831L211.79 4.53396L207.385 8.04167Z" fill="#13636B"/>
<path d="M210.246 0L161.526 40.1215V44.5631L211.79 4.53396L315.831 53.012V48.7713L210.246 0Z" fill="#0E4A50"/>
<path d="M161.526 40.1215H127.37V44.5685H161.526V40.1215Z" fill="#2F3F60"/>
<path d="M279.099 50.5414H242.465V103.966H279.099V50.5414Z" fill="#F9E1D9"/>
<path d="M274.5 56.1614H248.721V94.8385H274.5V56.1614Z" fill="#87A1C6"/>
<path d="M247.474 55.0048V96.0005H275.747V55.0048H247.474ZM273.253 93.6819H249.962V57.3016H273.253V93.6819Z" fill="#1C0B06"/>
<path opacity="0.39" d="M253.509 72.88H276.584V54.326H246.637V96.6846H253.509V72.88Z" fill="#53627C"/>
<path d="M276.584 54.2989H246.637V96.652H276.584V54.2989ZM274.91 65.7886H263.408V55.6835H274.927L274.91 65.7886ZM263.408 66.7171H274.927V81.9533H263.408V66.7171ZM262.291 55.6835V65.8103H248.294V55.6835H262.291ZM248.294 66.7171H262.274V81.9533H248.294V66.7171ZM248.294 95.3217V82.833H262.274V95.3217H248.294ZM263.376 95.3217V82.833H274.894V95.3217H263.376Z" fill="#E5E5DA"/>
<path d="M284.357 103.966H236.743C236.743 103.345 236.864 102.73 237.1 102.155C237.336 101.581 237.682 101.06 238.119 100.62C238.555 100.181 239.074 99.8326 239.645 99.5952C240.215 99.3578 240.827 99.236 241.445 99.2367H279.655C280.273 99.236 280.884 99.3578 281.455 99.5952C282.026 99.8326 282.544 100.181 282.981 100.62C283.418 101.06 283.764 101.581 284 102.155C284.236 102.73 284.357 103.345 284.357 103.966Z" fill="#563926"/>
<path d="M282.759 48.8364H239.226V51.7794H282.759V48.8364Z" fill="#563926"/>
<path d="M279.93 47.7505H240.97V48.8364H279.93V47.7505Z" fill="#8E5536"/>
<path d="M221.279 50.3459H184.645V103.771H221.279V50.3459Z" fill="#F9E1D9"/>
<path d="M216.68 55.9713H190.895V94.6484H216.68V55.9713Z" fill="#87A1C6"/>
<path d="M189.648 54.8093V95.805H217.927V54.8093H189.648ZM215.433 93.4864H192.158V57.1062H215.449L215.433 93.4864Z" fill="#1C0B06"/>
<path opacity="0.39" d="M195.688 72.6845H218.764V54.1306H188.817V96.4892H195.688V72.6845Z" fill="#53627C"/>
<path d="M218.764 54.1306H188.812V96.4837H218.764V54.1306ZM217.09 65.6148H205.572V55.4881H217.09V65.6148ZM205.572 66.5216H217.09V81.7579H205.572V66.5216ZM204.454 55.4881V65.6148H190.485V55.4881H204.454ZM190.485 66.5216H204.454V81.7579H190.485V66.5216ZM190.485 95.1317V82.6429H204.454V95.1317H190.485ZM205.599 95.1317V82.6429H217.117V95.1317H205.599Z" fill="#E5E5DA"/>
<path d="M184.682 99.0412H222.893C224.14 99.0412 225.336 99.5395 226.217 100.426C227.099 101.313 227.594 102.516 227.594 103.771H179.981C179.981 102.516 180.476 101.313 181.358 100.426C182.24 99.5395 183.436 99.0412 184.682 99.0412Z" fill="#563926"/>
<path d="M224.933 48.641H181.401V51.584H224.933V48.641Z" fill="#563926"/>
<path d="M222.11 47.555H183.15V48.641H222.11V47.555Z" fill="#8E5536"/>
<path d="M317.239 110.02H184.089V99.0412H305.796L317.239 110.02Z" fill="#893D13"/>
<path d="M184.089 101.403H308.263L307.075 100.263H184.089V101.403Z" fill="#562106"/>
<path d="M184.089 103.646H310.6L309.413 102.505H184.089V103.646Z" fill="#562106"/>
<path d="M184.089 105.894H312.937L311.75 104.748H184.089V105.894Z" fill="#562106"/>
<path d="M184.089 108.136H315.275L314.087 106.996H184.089V108.136Z" fill="#562106"/>
<path d="M184.089 110.02H317.239L316.424 109.239H184.089V110.02Z" fill="#562106"/>
<path d="M317.239 110.02H184.089V113.62H317.239V110.02Z" fill="#EFCFCB"/>
<path opacity="0.51" d="M294.623 162.088H294.418V116.933H255.241V162.088H254.378C253.843 162.063 253.32 162.252 252.925 162.615C252.529 162.977 252.292 163.483 252.267 164.021V165.221H296.733V164.021C296.707 163.483 296.47 162.978 296.075 162.616C295.679 162.254 295.157 162.064 294.623 162.088Z" fill="#6D5C50"/>
<path d="M289.177 117.182H255.5V162.413H289.177V117.182Z" fill="#6E6E7F"/>
<path d="M262.501 124.225H289.177V117.182H255.5V162.413H262.501V124.225Z" fill="#565672"/>
<path d="M289.765 160.969V116.591H254.912V160.833C254.182 160.929 253.511 161.289 253.024 161.845C252.538 162.402 252.269 163.117 252.267 163.858H291.822C291.821 163.221 291.623 162.599 291.254 162.081C290.885 161.563 290.365 161.174 289.765 160.969ZM271.542 140.031V150.717H263.748V140.031H271.542ZM263.748 139.087V128.721H271.542V139.087H263.748ZM281.301 139.087H272.487V128.721H281.301V139.087ZM281.301 140.031V150.717H272.487V140.031H281.301ZM281.301 151.662V160.79H272.487V151.662H281.301ZM282.241 160.79V151.662H288.594V160.79H282.241ZM288.594 150.717H282.241V140.031H288.594V150.717ZM288.594 139.087H282.241V128.721H288.594V139.087ZM281.301 127.776H272.487V117.774H281.301V127.776ZM271.542 127.776H263.748V117.774H271.542V127.776ZM271.542 151.668V160.795H263.748V151.662L271.542 151.668ZM256.089 140.037H262.809V150.723H256.089V140.037ZM262.809 139.092H256.089V128.721H262.809V139.092ZM256.089 151.668H262.809V160.795H256.089V151.668ZM288.594 127.776H282.241V117.774H288.594V127.776ZM262.809 117.774V127.776H256.089V117.774H262.809Z" fill="#BAB99D"/>
<path opacity="0.18" d="M271.046 129.096H264.137V138.555H271.046V129.096Z" fill="#BDDBDB"/>
<path opacity="0.18" d="M280.573 140.33H273.016V149.968H280.573V140.33Z" fill="#BDDBDB"/>
<path opacity="0.18" d="M280.891 118.393H273.016V127.38H280.891V118.393Z" fill="#BDDBDB"/>
<path opacity="0.18" d="M280.891 129.096H273.016V137.903H280.891V129.096Z" fill="#BDDBDB"/>
<path opacity="0.18" d="M270.727 140.564H264.137V150.272H270.727V140.564Z" fill="#BDDBDB"/>
<path opacity="0.18" d="M270.722 152.569H264.434V160.019H270.722V152.569Z" fill="#BDDBDB"/>
<path opacity="0.51" d="M249.671 162.088H249.471V116.933H210.289V162.088H209.431C208.896 162.063 208.374 162.252 207.978 162.615C207.582 162.977 207.346 163.483 207.32 164.021V165.221H251.781V164.021C251.756 163.483 251.52 162.977 251.124 162.615C250.728 162.252 250.205 162.063 249.671 162.088Z" fill="#6D5C50"/>
<path d="M244.225 117.182H210.548V162.413H244.225V117.182Z" fill="#6E6E7F"/>
<path d="M217.549 124.225H244.23V117.182H210.548V162.413H217.549V124.225Z" fill="#565672"/>
<path d="M244.818 160.969V116.591H209.971V160.833C209.24 160.928 208.568 161.288 208.082 161.844C207.595 162.401 207.326 163.117 207.326 163.858H246.88C246.879 163.22 246.68 162.599 246.31 162.081C245.94 161.563 245.419 161.174 244.818 160.969ZM226.596 140.031V150.717H218.801V140.031H226.596ZM218.801 139.087V128.721H226.596V139.087H218.801ZM236.355 139.087H227.54V128.721H236.355V139.087ZM236.355 140.031V150.717H227.54V140.031H236.355ZM236.355 151.662V160.79H227.54V151.662H236.355ZM237.294 160.79V151.662H243.642V160.79H237.294ZM243.642 150.717H237.294V140.031H243.642V150.717ZM243.642 139.087H237.294V128.721H243.642V139.087ZM236.355 127.776H227.54V117.774H236.355V127.776ZM226.596 127.776H218.801V117.774H226.596V127.776ZM226.596 151.668V160.795H218.801V151.662L226.596 151.668ZM211.137 140.037H217.857V150.723H211.137V140.037ZM217.857 139.092H211.137V128.721H217.857V139.092ZM211.137 151.668H217.857V160.795H211.137V151.668ZM243.642 127.776H237.294V117.774H243.642V127.776ZM217.857 117.774V127.776H211.137V117.774H217.857Z" fill="#BAB99D"/>
<path opacity="0.18" d="M226.094 129.096H219.185V138.555H226.094V129.096Z" fill="#BDDBDB"/>
<path opacity="0.18" d="M235.626 140.33H228.069V149.968H235.626V140.33Z" fill="#BDDBDB"/>
<path opacity="0.18" d="M235.944 118.393H228.069V127.38H235.944V118.393Z" fill="#BDDBDB"/>
<path opacity="0.18" d="M235.944 129.096H228.069V137.903H235.944V129.096Z" fill="#BDDBDB"/>
<path opacity="0.18" d="M225.775 140.564H219.185V150.272H225.775V140.564Z" fill="#BDDBDB"/>
<path opacity="0.18" d="M225.775 152.569H219.487V160.019H225.775V152.569Z" fill="#BDDBDB"/>
<path d="M196.174 113.62H191.883V169.527H196.174V113.62Z" fill="#E5E5DA"/>
<path d="M303.529 155.355H301.807V169.532H303.529V155.355Z" fill="#FCFCF5"/>
<path d="M277.82 155.355H276.093V169.532H277.82V155.355Z" fill="#FCFCF5"/>
<path d="M269.378 155.355H267.656V169.532H269.378V155.355Z" fill="#FCFCF5"/>
<path d="M260.941 155.355H259.219V169.532H260.941V155.355Z" fill="#FCFCF5"/>
<path d="M252.51 155.355H250.788V169.532H252.51V155.355Z" fill="#FCFCF5"/>
<path d="M244.073 155.355H242.352V169.532H244.073V155.355Z" fill="#FCFCF5"/>
<path d="M235.637 155.355H233.915V169.532H235.637V155.355Z" fill="#FCFCF5"/>
<path d="M227.2 155.355H225.478V169.532H227.2V155.355Z" fill="#FCFCF5"/>
<path d="M218.769 155.355H217.047V169.532H218.769V155.355Z" fill="#FCFCF5"/>
<path d="M210.332 155.355H208.611V169.532H210.332V155.355Z" fill="#FCFCF5"/>
<path d="M201.896 155.355H200.174V169.532H201.896V155.355Z" fill="#FCFCF5"/>
<path d="M193.465 155.355H191.743V169.532H193.465V155.355Z" fill="#FCFCF5"/>
<path d="M286.251 155.355H284.529V169.532H286.251V155.355Z" fill="#FCFCF5"/>
<g style="mix-blend-mode:multiply" opacity="0.48">
<path d="M305.796 113.62H198.242L161.526 63.6817V183.21H203.79V125.539H305.796V113.62Z" fill="#208471"/>
</g>
<path d="M187.802 108.239H59.2938V183.21H187.802V108.239Z" fill="#41E5C6"/>
<path d="M189.713 104.096H59.2938V108.239H189.713V104.096Z" fill="#2F3F60"/>
<path d="M52.9515 75.861L168.748 75.6655L189.713 104.096H59.2938L52.9515 75.861Z" fill="#72C6DD"/>
<path d="M134.765 130.958H67.2716V183.204H134.765V130.958Z" fill="#FFEFEE"/>
<path d="M132.352 136.497H69.679V139.038H132.352V136.497Z" fill="#725C49"/>
<path d="M132.352 140.162H69.679V142.703H132.352V140.162Z" fill="#725C49"/>
<path d="M132.352 143.827H69.679V146.374H132.352V143.827Z" fill="#725C49"/>
<path d="M132.352 147.492H69.679V150.033H132.352V147.492Z" fill="#725C49"/>
<path d="M132.352 151.157H69.679V153.698H132.352V151.157Z" fill="#725C49"/>
<path d="M132.352 154.822H69.679V157.364H132.352V154.822Z" fill="#725C49"/>
<path d="M132.352 158.488H69.679V161.029H132.352V158.488Z" fill="#725C49"/>
<path d="M132.352 162.153H69.679V164.694H132.352V162.153Z" fill="#725C49"/>
<path d="M132.352 165.813H69.679V168.354H132.352V165.813Z" fill="#725C49"/>
<path d="M132.352 169.478H69.679V172.019H132.352V169.478Z" fill="#725C49"/>
<path d="M132.352 173.143H69.679V175.684H132.352V173.143Z" fill="#725C49"/>
<path d="M132.352 176.808H69.679V179.349H132.352V176.808Z" fill="#725C49"/>
<path d="M132.352 180.473H69.679V183.014H132.352V180.473Z" fill="#725C49"/>
<path d="M179.02 117.383H142.386V170.808H179.02V117.383Z" fill="#F9E1D9"/>
<path d="M174.416 123.009H148.637V161.686H174.416V123.009Z" fill="#87A1C6"/>
<path d="M147.39 121.847V162.848H175.663V121.847H147.39ZM173.169 160.524H149.883V124.171H173.169V160.524Z" fill="#1C0B06"/>
<path opacity="0.39" d="M153.424 139.722H176.5V121.168H146.553V163.527H153.424V139.722Z" fill="#53627C"/>
<path d="M176.505 121.168H146.553V163.521H176.505V121.168ZM174.832 132.652H163.308V122.525H174.826L174.832 132.652ZM163.308 133.575H174.826V148.779H163.308V133.575ZM162.196 122.542V132.652H148.226V122.525L162.196 122.542ZM148.226 133.575H162.196V148.779H148.226V133.575ZM148.226 162.185V149.697H162.196V162.185H148.226ZM163.308 162.185V149.697H174.826V162.185H163.308Z" fill="#E5E5DA"/>
<path d="M179.571 166.079H141.366C140.748 166.078 140.136 166.2 139.565 166.437C138.994 166.674 138.475 167.023 138.038 167.462C137.601 167.901 137.254 168.423 137.017 168.997C136.781 169.571 136.659 170.187 136.659 170.808H184.272C184.273 170.187 184.152 169.571 183.916 168.997C183.68 168.423 183.334 167.902 182.897 167.462C182.46 167.023 181.942 166.675 181.371 166.437C180.8 166.2 180.188 166.078 179.571 166.079Z" fill="#563926"/>
<path d="M182.675 115.678H139.142V118.621H182.675V115.678Z" fill="#563926"/>
<path d="M179.846 114.598H140.885V115.684H179.846V114.598Z" fill="#8E5536"/>
<path d="M307.912 169.527H187.802V183.21H307.912V169.527Z" fill="#C69473"/>
<path d="M299.081 113.62H293.835V169.527H299.081V113.62Z" fill="#E5E5DA"/>
<path d="M298.153 113.62H294.769V169.527H298.153V113.62Z" fill="#FCFCF5"/>
<path d="M304.501 153.145H187.802V155.355H304.501V153.145Z" fill="#FCFCF5"/>
<path d="M187.802 183.21H307.907V169.527L306.617 181.858L187.802 183.21Z" fill="#A8795E"/>
<g clip-path="url(#clip1)">
<path fill-rule="evenodd" clip-rule="evenodd" d="M469.247 161.434L458.344 171.207L459.626 181.206L464.315 187.13L493.406 187.721L564.384 188.65L588.543 183.767L591.747 182.837L585.334 164.924L564.597 158.642L469.247 161.434Z" fill="#23211E"/>
<path fill-rule="evenodd" clip-rule="evenodd" d="M518.206 137.92C518.178 137.92 504.15 143.41 492.83 150.062C492.83 150.062 489.115 153.267 490.09 155.579L493.619 158.494L523.123 140.934L520.448 138.696L518.206 137.92Z" fill="#404041"/>
<path fill-rule="evenodd" clip-rule="evenodd" d="M571.279 139.868C571.279 139.868 587.47 146.794 591.268 149.899L594.955 151.234L595.596 153.668L592.346 156.34L570.633 142.233L571.279 139.868Z" fill="#404041"/>
<path fill-rule="evenodd" clip-rule="evenodd" d="M479.439 172.949C481.327 172.933 483.177 173.555 484.754 174.735C486.331 175.915 487.565 177.601 488.299 179.579C489.033 181.557 489.235 183.738 488.879 185.846C488.522 187.955 487.623 189.895 486.296 191.423C484.969 192.95 483.274 193.995 481.424 194.426C479.574 194.857 477.653 194.655 475.905 193.844C474.157 193.033 472.659 191.651 471.602 189.872C470.545 188.093 469.976 185.998 469.966 183.851C469.953 180.978 470.943 178.216 472.719 176.172C474.495 174.128 476.912 172.968 479.439 172.949Z" fill="#58595B"/>
<path fill-rule="evenodd" clip-rule="evenodd" d="M479.415 173.007L481.524 180.425L488.382 180.409L482.824 184.981L484.955 192.388L479.415 187.795L473.876 192.388L476.012 184.981L470.454 180.409L477.312 180.425L479.415 173.007Z" fill="white"/>
<path fill-rule="evenodd" clip-rule="evenodd" d="M470.584 193.866C472.347 195.846 474.587 197.186 477.02 197.719C479.454 198.252 481.971 197.953 484.255 196.86C486.539 195.767 488.487 193.929 489.853 191.578C491.218 189.227 491.941 186.468 491.928 183.651C491.916 180.834 491.17 178.083 489.783 175.748C488.397 173.413 486.433 171.597 484.14 170.529C481.847 169.462 479.327 169.192 476.898 169.752C474.47 170.312 472.242 171.678 470.496 173.677C469.333 175.008 468.413 176.587 467.789 178.322C467.164 180.058 466.846 181.917 466.855 183.793C466.863 185.668 467.196 187.523 467.836 189.252C468.476 190.981 469.41 192.549 470.584 193.866ZM485.907 191.042C484.634 192.503 483.008 193.502 481.235 193.913C479.462 194.324 477.622 194.127 475.948 193.349C474.273 192.571 472.839 191.245 471.827 189.54C470.815 187.835 470.27 185.827 470.261 183.77C470.253 181.713 470.781 179.7 471.779 177.984C472.777 176.268 474.2 174.928 475.869 174.131C477.537 173.335 479.375 173.12 481.151 173.512C482.927 173.903 484.561 174.885 485.846 176.333C486.7 177.294 487.38 178.436 487.845 179.695C488.311 180.954 488.554 182.305 488.561 183.671C488.567 185.037 488.337 186.391 487.883 187.655C487.429 188.92 486.761 190.071 485.916 191.042H485.907Z" fill="#363638"/>
<path fill-rule="evenodd" clip-rule="evenodd" d="M479.406 180.931C478.919 180.934 478.444 181.1 478.04 181.409C477.636 181.719 477.322 182.157 477.138 182.67C476.953 183.182 476.907 183.745 477.004 184.288C477.101 184.83 477.338 185.328 477.684 185.717C478.029 186.107 478.469 186.371 478.947 186.477C479.425 186.582 479.92 186.524 480.369 186.309C480.818 186.095 481.201 185.733 481.469 185.271C481.737 184.809 481.879 184.267 481.876 183.714C481.876 183.346 481.811 182.983 481.687 182.644C481.562 182.305 481.38 181.997 481.15 181.739C480.921 181.48 480.648 181.276 480.349 181.137C480.05 180.999 479.729 180.929 479.406 180.931Z" fill="#9DA0A5"/>
<path fill-rule="evenodd" clip-rule="evenodd" d="M472.919 176.402C474.193 174.94 475.819 173.941 477.591 173.53C479.364 173.12 481.204 173.316 482.879 174.094C484.553 174.873 485.987 176.198 487 177.903C488.012 179.608 488.556 181.616 488.565 183.673C488.573 185.73 488.045 187.744 487.047 189.459C486.049 191.175 484.626 192.516 482.958 193.312C481.289 194.108 479.451 194.324 477.675 193.932C475.899 193.54 474.265 192.558 472.98 191.11C472.126 190.149 471.448 189.006 470.983 187.747C470.518 186.487 470.276 185.136 470.27 183.77C470.265 182.404 470.496 181.051 470.95 179.786C471.405 178.522 472.074 177.372 472.919 176.402ZM479.42 195.107C481.401 195.107 483.337 194.439 484.984 193.188C486.632 191.936 487.915 190.158 488.673 188.077C489.431 185.996 489.63 183.706 489.243 181.497C488.857 179.288 487.903 177.259 486.502 175.667C485.102 174.074 483.317 172.989 481.374 172.55C479.431 172.111 477.417 172.336 475.587 173.198C473.757 174.06 472.193 175.52 471.092 177.392C469.992 179.265 469.404 181.467 469.404 183.719C469.404 186.738 470.459 189.634 472.336 191.77C474.214 193.905 476.76 195.105 479.415 195.107H479.42Z" fill="white"/>
<path fill-rule="evenodd" clip-rule="evenodd" d="M478.482 172.68C478.459 172.389 477.312 180.404 477.312 180.404H481.732C481.732 180.404 480.534 172.854 480.558 172.622C480.581 172.389 478.482 172.68 478.482 172.68Z" fill="white"/>
<path fill-rule="evenodd" clip-rule="evenodd" d="M470.152 181.565C469.911 181.507 476.133 185.002 476.133 185.002L477.396 180.345C477.396 180.345 470.895 179.453 470.714 179.348C470.533 179.242 470.152 181.565 470.152 181.565Z" fill="white"/>
<path fill-rule="evenodd" clip-rule="evenodd" d="M474.921 193.175C474.8 193.428 479.564 187.668 479.564 187.668L476.003 184.949C476.003 184.949 473.374 191.76 473.244 191.929C473.114 192.098 474.921 193.175 474.921 193.175Z" fill="white"/>
<path fill-rule="evenodd" clip-rule="evenodd" d="M485.972 191.902C486.144 192.119 482.833 184.923 482.833 184.923L479.304 187.927C479.304 187.927 484.231 193.143 484.333 193.343C484.435 193.544 485.972 191.902 485.972 191.902Z" fill="white"/>
<path fill-rule="evenodd" clip-rule="evenodd" d="M488.21 179.348C488.442 179.231 481.482 180.488 481.482 180.488L482.842 185.155C482.842 185.155 488.684 181.56 488.879 181.512C489.074 181.465 488.21 179.348 488.21 179.348Z" fill="white"/>
<path fill-rule="evenodd" clip-rule="evenodd" d="M577.626 172.949C579.514 172.938 581.361 173.565 582.935 174.748C584.51 175.931 585.74 177.619 586.471 179.598C587.201 181.576 587.399 183.756 587.04 185.863C586.681 187.969 585.781 189.908 584.453 191.432C583.125 192.957 581.429 194 579.58 194.428C577.731 194.857 575.811 194.653 574.064 193.842C572.317 193.03 570.821 191.648 569.765 189.87C568.709 188.091 568.14 185.997 568.131 183.851C568.124 182.426 568.364 181.014 568.838 179.694C569.312 178.375 570.009 177.175 570.891 176.162C571.773 175.15 572.822 174.345 573.978 173.793C575.133 173.242 576.373 172.955 577.626 172.949Z" fill="#58595B"/>
<path fill-rule="evenodd" clip-rule="evenodd" d="M577.603 173.007L579.711 180.425L586.569 180.409L581.011 184.981L583.143 192.388L577.603 187.795L572.064 192.388L574.195 184.981L568.642 180.409L575.5 180.425L577.603 173.007Z" fill="white"/>
<path fill-rule="evenodd" clip-rule="evenodd" d="M568.767 193.866C570.53 195.846 572.77 197.186 575.203 197.719C577.637 198.252 580.154 197.953 582.438 196.86C584.722 195.767 586.67 193.929 588.036 191.578C589.401 189.227 590.124 186.468 590.111 183.651C590.099 180.834 589.353 178.083 587.966 175.748C586.58 173.413 584.617 171.597 582.323 170.529C580.03 169.462 577.51 169.192 575.081 169.752C572.653 170.312 570.425 171.678 568.679 173.677C567.516 175.008 566.596 176.587 565.972 178.322C565.347 180.058 565.029 181.917 565.038 183.793C565.046 185.668 565.379 187.523 566.019 189.252C566.659 190.981 567.593 192.549 568.767 193.866ZM584.09 191.042C582.817 192.503 581.191 193.502 579.418 193.913C577.645 194.324 575.805 194.127 574.131 193.349C572.456 192.571 571.022 191.245 570.01 189.54C568.998 187.835 568.453 185.827 568.444 183.77C568.436 181.713 568.964 179.7 569.962 177.984C570.96 176.268 572.383 174.928 574.052 174.131C575.72 173.335 577.558 173.12 579.334 173.512C581.11 173.903 582.744 174.885 584.029 176.333C584.884 177.293 585.563 178.435 586.029 179.694C586.496 180.953 586.739 182.304 586.746 183.67C586.753 185.036 586.523 186.39 586.07 187.655C585.616 188.919 584.948 190.07 584.104 191.042H584.09Z" fill="#363638"/>
<path fill-rule="evenodd" clip-rule="evenodd" d="M577.594 180.931C577.107 180.934 576.631 181.1 576.228 181.409C575.824 181.719 575.51 182.157 575.326 182.67C575.141 183.182 575.095 183.745 575.192 184.288C575.289 184.83 575.525 185.328 575.871 185.717C576.217 186.107 576.657 186.371 577.135 186.477C577.613 186.582 578.108 186.524 578.557 186.309C579.006 186.095 579.388 185.733 579.657 185.271C579.925 184.809 580.067 184.267 580.064 183.714C580.063 183.346 579.999 182.983 579.874 182.644C579.75 182.305 579.567 181.997 579.338 181.739C579.108 181.48 578.836 181.276 578.537 181.137C578.237 180.999 577.917 180.929 577.594 180.931Z" fill="#9DA0A5"/>
<path fill-rule="evenodd" clip-rule="evenodd" d="M571.102 176.402C572.375 174.94 574.001 173.94 575.773 173.529C577.546 173.117 579.386 173.313 581.061 174.09C582.736 174.868 584.17 176.193 585.183 177.897C586.196 179.602 586.741 181.61 586.75 183.667C586.759 185.724 586.232 187.738 585.234 189.454C584.237 191.17 582.814 192.511 581.146 193.308C579.478 194.104 577.64 194.321 575.864 193.93C574.087 193.539 572.453 192.557 571.167 191.11C569.445 189.169 568.47 186.529 568.458 183.771C568.445 181.013 569.397 178.363 571.102 176.402ZM577.603 195.107C579.584 195.108 581.521 194.441 583.169 193.19C584.816 191.94 586.101 190.161 586.86 188.081C587.618 186 587.817 183.71 587.432 181.501C587.046 179.291 586.092 177.262 584.692 175.668C583.291 174.075 581.506 172.99 579.563 172.55C577.62 172.111 575.606 172.336 573.776 173.198C571.946 174.059 570.381 175.519 569.28 177.392C568.18 179.265 567.592 181.466 567.592 183.719C567.592 186.738 568.647 189.634 570.524 191.77C572.401 193.905 574.948 195.105 577.603 195.107Z" fill="white"/>
<path fill-rule="evenodd" clip-rule="evenodd" d="M576.67 172.68C576.642 172.389 575.5 180.425 575.5 180.425H579.92C579.92 180.425 578.722 172.875 578.745 172.643C578.769 172.41 576.67 172.68 576.67 172.68Z" fill="white"/>
<path fill-rule="evenodd" clip-rule="evenodd" d="M568.34 181.565C568.094 181.507 574.32 185.002 574.32 185.002L575.579 180.345C575.579 180.345 569.078 179.453 568.902 179.363C568.725 179.274 568.34 181.565 568.34 181.565Z" fill="white"/>
<path fill-rule="evenodd" clip-rule="evenodd" d="M573.108 193.175C572.988 193.428 577.729 187.668 577.729 187.668L574.176 184.949C574.176 184.949 571.544 191.76 571.418 191.929C571.293 192.098 573.108 193.175 573.108 193.175Z" fill="white"/>
<path fill-rule="evenodd" clip-rule="evenodd" d="M584.155 191.902C584.331 192.119 581.021 184.923 581.021 184.923L577.492 187.927C577.492 187.927 582.418 193.143 582.52 193.343C582.623 193.544 584.155 191.902 584.155 191.902Z" fill="white"/>
<path fill-rule="evenodd" clip-rule="evenodd" d="M586.398 179.348C586.63 179.231 579.669 180.488 579.669 180.488L581.03 185.187C581.03 185.187 586.871 181.591 587.066 181.544C587.261 181.496 586.398 179.348 586.398 179.348Z" fill="white"/>
<path fill-rule="evenodd" clip-rule="evenodd" d="M450.464 174.686C449.299 170.832 450.534 168.018 451.7 164.898C453.45 160.215 485.466 151.409 493.434 149.709C493.434 149.709 490.183 151.53 493.276 154.814C493.276 154.814 514.603 141.874 519.743 139.503L518.141 137.677C518.141 137.677 538.335 130.386 571.191 139.868V140.961L591.552 152.992C591.552 152.992 595.903 152.264 591.255 149.893C600.198 153.167 603.211 153.351 603.741 155.173L603.578 165.019V167.944C603.578 167.944 607.427 169.581 606.944 172.695C606.629 174.661 606.201 176.601 605.663 178.503L604.864 179.031L604.544 182.858C604.544 182.858 596.455 187.985 590.043 188.529C591.779 179.3 588.803 170.161 576.693 170.578C566.269 170.943 564.295 183.212 564.295 183.212L564.138 188.317L563.975 189.41L493.907 187.953V183.439C493.907 183.439 493.828 171.175 479.239 170.241C464.65 169.306 465.035 186.295 465.035 186.295L464.715 188.851C464.715 188.851 453.501 188.687 451.393 183.74C451.393 183.74 451.268 176.877 450.464 174.686Z" fill="#E6E7E8"/>
<path fill-rule="evenodd" clip-rule="evenodd" d="M497.469 188.069L493.921 187.995V183.439C493.921 183.439 493.842 171.175 479.253 170.24C464.664 169.306 465.035 186.295 465.035 186.295L464.715 188.851C464.715 188.851 453.501 188.687 451.393 183.74C451.393 183.74 451.356 181.834 451.203 179.712L460.749 181.296C460.749 181.296 462.24 176.206 466.786 171.407C475.464 162.268 489.538 164.734 495.997 176.74C497.673 179.865 498.411 185.577 498.411 185.577C498.411 185.577 498.109 186.559 497.469 188.069Z" fill="#D0D2D3"/>
<path fill-rule="evenodd" clip-rule="evenodd" d="M603.592 167.944C603.592 167.944 607.441 169.581 606.958 172.695C606.643 174.661 606.215 176.601 605.677 178.503L604.878 179.031L604.558 182.858C604.558 182.858 596.469 187.985 590.057 188.529C591.259 179.833 588.817 170.161 576.707 170.578C566.283 170.943 564.309 183.212 564.309 183.212L564.212 186.38C561.509 185.298 559.805 184.532 559.805 184.532C562.401 172.801 569.733 162.638 581.513 166.228C587.006 167.907 590.289 173.239 590.289 173.239C592.573 172.901 594.819 172.289 596.989 171.413C599.253 170.419 601.459 169.26 603.592 167.944Z" fill="#D0D2D3"/>
<path fill-rule="evenodd" clip-rule="evenodd" d="M493.726 183.619L494.047 187.874L563.85 189.453L564.063 188.36L564.277 183.619L562.457 183.497L560.214 184.59L497.789 184.469L497.148 183.497L493.726 183.619Z" fill="#D0D2D3"/>
<path fill-rule="evenodd" clip-rule="evenodd" d="M450.334 174.216L451.217 179.712C451.217 179.712 459.802 181.766 460.763 181.296L460.067 176.544C460.067 176.544 451.393 175.916 450.334 174.216Z" fill="#C7C9CE"/>
<path fill-rule="evenodd" clip-rule="evenodd" d="M453.055 165.146C453.598 164.125 454.306 163.229 455.14 162.506C456.469 162.507 457.791 162.721 459.068 163.14C461.553 163.868 463.247 164.143 463.247 164.143C463.247 164.143 465.894 164.871 462.045 166.255C458.195 167.638 455.618 167.516 454.179 166.677C452.74 165.837 453.055 165.146 453.055 165.146Z" fill="#FBF9F6"/>
<path fill-rule="evenodd" clip-rule="evenodd" d="M496.187 157.855C496.187 157.855 513.075 144.361 523.118 140.961C523.118 140.961 528.008 138.775 539.101 138.738C541.71 147.629 541.274 146.129 543.595 156.16L529.201 156.646L496.173 157.86L496.187 157.855ZM541.826 138.775L546.205 156.07C558.579 155.659 573.554 155.178 575.82 155.178C579.776 155.178 575.393 150.316 575.393 150.316C574 148.859 568.66 144.968 568.66 144.968C565.154 143.025 559.787 139.752 544.724 138.891C543.712 138.838 542.75 138.796 541.826 138.775Z" fill="#404041"/>
<path fill-rule="evenodd" clip-rule="evenodd" d="M535.066 161.968C535.066 162.395 533.255 162.744 531.021 162.744C528.788 162.744 526.972 162.395 526.972 161.968C526.972 161.54 528.783 161.197 531.021 161.197C533.259 161.197 535.066 161.545 535.066 161.968Z" fill="#58595B"/>
<path fill-rule="evenodd" clip-rule="evenodd" d="M573.387 160.146C573.387 160.574 571.576 160.922 569.343 160.922C567.109 160.922 565.294 160.574 565.294 160.146C565.294 159.719 567.105 159.37 569.343 159.37C571.581 159.37 573.387 159.719 573.387 160.146Z" fill="#58595B"/>
<path fill-rule="evenodd" clip-rule="evenodd" d="M603.694 158.557C603.694 158.557 599.487 158.446 597.398 159.117C595.308 159.787 595.87 163.868 597.514 165.141C598.637 165.991 602.593 165.389 603.55 165.141C603.559 165.146 604.502 160.869 603.694 158.557Z" fill="url(#paint0_linear)"/>
<path fill-rule="evenodd" clip-rule="evenodd" d="M503.463 159.286C502.033 159.745 496.21 159.317 495.876 157.923C495.542 156.53 500.58 152.797 503.491 153.109L503.463 159.286Z" fill="#CED0D1"/>
<path fill-rule="evenodd" clip-rule="evenodd" d="M451.778 164.734C451.778 164.734 452.452 164.037 452.503 166.281C452.554 168.525 452.085 173.635 451.393 173.646C450.701 173.656 450.102 173.181 450.088 172.949C449.768 167.295 451.778 164.734 451.778 164.734Z" fill="url(#paint1_linear)"/>
</g>
<defs>
<linearGradient id="paint0_linear" x1="600.704" y1="157.966" x2="598.957" y2="165.859" gradientUnits="userSpaceOnUse">
<stop stop-color="#F3807C"/>
<stop offset="0.5" stop-color="#EE3D57"/>
<stop offset="1" stop-color="#DD1E47"/>
</linearGradient>
<linearGradient id="paint1_linear" x1="451.282" y1="-490.47" x2="451.282" y2="828.744" gradientUnits="userSpaceOnUse">
<stop stop-color="white"/>
<stop offset="1" stop-color="#231F20"/>
</linearGradient>
<clipPath id="clip0">
<rect width="125.68" height="164" fill="white" transform="translate(341 23)"/>
</clipPath>
<clipPath id="clip1">
<rect width="157" height="63" fill="white" transform="translate(450 135)"/>
</clipPath>
</defs>
</svg>
