<svg height="512pt" viewBox="0 -26 512.00044 512" width="512pt" xmlns="http://www.w3.org/2000/svg"><path d="m152.726562 310.019531c19.097657 0 34.574219-15.257812 34.574219-34.078125 0-18.824218-15.480469-34.082031-34.582031-34.082031h-21.449219c-3.378906 0-6.113281 2.734375-6.113281 6.113281v55.933594c0 3.375 2.734375 6.113281 6.113281 6.113281zm-15.34375-56.433593h15.335938c12.347656 0 22.355469 10.007812 22.355469 22.351562s-10.007813 22.351562-22.355469 22.351562h-15.335938zm0 0"/><path d="m244.59375 253.585938c3.238281 0 5.863281-2.625 5.863281-5.863282 0-3.238281-2.625-5.863281-5.863281-5.863281h-38.140625c-3.378906 0-6.117187 2.734375-6.117187 6.113281v55.933594c0 3.375 2.738281 6.113281 6.117187 6.113281h38.140625c3.238281 0 5.863281-2.625 5.863281-5.863281s-2.625-5.863281-5.863281-5.863281h-32.027344v-14.484375h26.011719c3.238281 0 5.863281-2.625 5.863281-5.863282 0-3.238281-2.625-5.863281-5.863281-5.863281h-26.011719v-18.496093zm0 0"/><path d="m292.761719 241.859375h-23.15625c-3.375 0-6.113281 2.734375-6.113281 6.113281v55.933594c0 3.375 2.738281 6.113281 6.113281 6.113281h25.660156c19.933594 0 27.730469-24.441406 11.839844-35.285156 12.242187-12.09375 3.542969-32.875-14.34375-32.875zm-17.042969 11.726563h17.042969c4.328125 0 7.816406 3.625 7.816406 8.101562 0 4.511719-3.488281 8.136719-7.816406 8.136719h-17.042969zm19.546875 44.707031h-19.546875v-16.738281h19.546875c4.5 0 8.121094 3.734374 8.121094 8.351562 0 4.621094-3.648438 8.386719-8.121094 8.386719zm0 0"/><path d="m356.214844 310.019531c3.378906 0 6.113281-2.738281 6.113281-6.113281v-50.320312h18.59375c3.242187 0 5.867187-2.625 5.867187-5.863282 0-3.238281-2.625-5.863281-5.867187-5.863281h-49.414063c-3.242187 0-5.863281 2.625-5.863281 5.863281 0 3.238282 2.621094 5.863282 5.863281 5.863282h18.59375v50.320312c0 3.375 2.738282 6.113281 6.113282 6.113281zm0 0"/><path d="m504.445312 388.257812c4.140626 0 7.496094-3.355468 7.496094-7.5-.890625-20.957031 2.589844-31.585937-4.863281-45.328124l-91.769531-169.25c-10.058594-18.554688-29.417969-30.078126-50.523438-30.078126h-7.550781v-31.410156c0-18.25-14.847656-33.101562-33.097656-33.101562h-13.539063v-16.964844c0-30.121094-24.503906-54.625-54.625-54.625s-54.625 24.503906-54.625 54.625v16.964844h-13.539062c-18.25 0-33.097656 14.851562-33.097656 33.101562v31.410156h-7.550782c-21.105468 0-40.464844 11.523438-50.523437 30.078126l-91.773438 169.253906c-3.179687 5.867187-4.863281 12.496094-4.863281 19.171875v68.882812c0 20.398438 16.597656 36.996094 36.996094 36.996094h437.949218c20.402344 0 36.996094-16.597656 36.996094-36.996094v-14.730469c0-4.144531-3.355468-7.5-7.496094-7.5-4.144531 0-7.5 3.355469-7.5 7.5v14.730469c0 12.128907-9.867187 21.996094-22 21.996094h-437.949218c-12.128906 0-21.996094-9.867187-21.996094-21.996094v-68.882812c0-11.421875-1.375-1.621094 94.816406-181.277344 7.4375-13.710937 21.742188-22.226563 37.339844-22.226563h217.628906c15.597656 0 29.90625 8.519532 37.339844 22.226563 96.488281 180.203125 94.820312 169.847656 94.820312 181.277344v26.152343c0 4.140626 3.355469 7.5 7.5 7.5zm-334.738281-252.15625v-31.410156c0-9.980468 8.121094-18.101562 18.101563-18.101562h54.164062c4.144532 0 7.5-3.355469 7.5-7.5 0-4.140625-3.355468-7.5-7.5-7.5h-25.625v-16.964844c0-21.851562 17.773438-39.625 39.625-39.625 21.847656 0 39.625 17.773438 39.625 39.625v16.964844h-25.628906c-4.140625 0-7.496094 3.359375-7.496094 7.5 0 4.144531 3.355469 7.5 7.496094 7.5h54.164062c9.980469 0 18.101563 8.121094 18.101563 18.101562v31.410156zm0 0"/><path d="m57.492188 354.605469c0 4.140625 3.359374 7.496093 7.5 7.496093h381.957031c4.144531 0 7.5-3.355468 7.5-7.496093 0-4.144531-3.355469-7.5-7.5-7.5h-381.957031c-4.140626 0-7.5 3.355469-7.5 7.5zm0 0"/></svg>