<?xml version="1.0" encoding="UTF-8" standalone="no"?>
<svg
   xmlns:dc="http://purl.org/dc/elements/1.1/"
   xmlns:cc="http://creativecommons.org/ns#"
   xmlns:rdf="http://www.w3.org/1999/02/22-rdf-syntax-ns#"
   xmlns:svg="http://www.w3.org/2000/svg"
   xmlns="http://www.w3.org/2000/svg"
   viewBox="0 0 666.66669 666.66669"
   height="666.66669"
   width="666.66669"
   xml:space="preserve"
   id="svg2"
   version="1.1"><metadata
     id="metadata8"><rdf:RDF><cc:Work
         rdf:about=""><dc:format>image/svg+xml</dc:format><dc:type
           rdf:resource="http://purl.org/dc/dcmitype/StillImage" /></cc:Work></rdf:RDF></metadata><defs
     id="defs6"><clipPath
       id="clipPath114"
       clipPathUnits="userSpaceOnUse"><path
         id="path112"
         d="m 3175.44,2904.36 c 0,-152.44 -123.58,-276.01 -276.01,-276.01 -152.43,0 -276.01,123.57 -276.01,276.01 0,152.43 123.58,276 276.01,276 152.43,0 276.01,-123.57 276.01,-276 z" /></clipPath><clipPath
       id="clipPath178"
       clipPathUnits="userSpaceOnUse"><path
         id="path176"
         d="m 3074.31,1906.87 c 0,-131.24 -106.38,-237.63 -237.62,-237.63 -131.23,0 -237.62,106.39 -237.62,237.63 0,131.24 106.39,237.63 237.62,237.63 131.24,0 237.62,-106.39 237.62,-237.63 z" /></clipPath></defs><g
     transform="matrix(1.3333333,0,0,-1.3333333,0,666.66667)"
     id="g10"><g
       transform="scale(0.1)"
       id="g12"><path
         id="path14"
         style="fill:#ffffff;fill-opacity:1;fill-rule:nonzero;stroke:none"
         d="M 5000,0 H 0 V 5000 H 5000 V 0" /><path
         id="path16"
         style="fill:#e8f7f9;fill-opacity:1;fill-rule:nonzero;stroke:none"
         d="m 2664.31,4091.28 c 0,0 -347.78,-73.77 -421.55,-453.16 -73.77,-379.4 221.31,-642.86 642.86,-632.33 0,0 590.17,-21.08 769.33,-400.47 179.16,-379.4 632.32,-274 748.25,105.38 115.93,379.4 -42.16,980.11 -537.47,1201.43 -495.32,221.31 -874.72,242.39 -1201.42,179.15" /><path
         id="path18"
         style="fill:#e8f7f9;fill-opacity:1;fill-rule:nonzero;stroke:none"
         d="m 609.254,2141.62 c 0,0 221.312,389.93 822.026,274 600.7,-115.93 779.86,-632.32 1275.18,-621.79 495.32,10.54 1106.57,210.79 1348.97,-94.84 242.38,-305.62 42.14,-916.869 -695.56,-874.72 -737.72,42.152 -748.25,326.7 -1159.27,221.31 C 1789.59,940.199 1536.66,718.879 925.418,919.121 314.164,1119.35 440.633,1888.69 609.254,2141.62" /><path
         id="path20"
         style="fill:#c7dbf3;fill-opacity:1;fill-rule:nonzero;stroke:none"
         d="m 570.723,715.789 c 0,-25.168 242.976,-45.57 542.687,-45.57 299.72,0 542.69,20.402 542.69,45.57 0,25.172 -242.97,45.57 -542.69,45.57 -299.711,0 -542.687,-20.398 -542.687,-45.57" /><path
         id="path22"
         style="fill:#355f9e;fill-opacity:1;fill-rule:nonzero;stroke:none"
         d="M 1124.77,3105.58 H 928.82 c -15.465,0 -27.996,12.53 -27.996,28 v 0 c 0,15.46 12.531,27.99 27.996,27.99 h 195.95 v -55.99" /><path
         id="path24"
         style="fill:#2c3d79;fill-opacity:1;fill-rule:nonzero;stroke:none"
         d="M 1029.92,3055.85 H 753.281 c -21.824,0 -39.519,17.7 -39.519,39.52 v 0 c 0,21.83 17.695,39.52 39.519,39.52 h 276.639 v -79.04" /><path
         id="path26"
         style="fill:#a5e2ec;fill-opacity:1;fill-rule:nonzero;stroke:none"
         d="M 1279.34,3055.85 H 1002.7 c -21.829,0 -39.52,17.7 -39.52,39.52 v 0 c 0,21.83 17.691,39.52 39.52,39.52 h 276.64 v -79.04" /><path
         id="path28"
         style="fill:#5e8dd1;fill-opacity:1;fill-rule:nonzero;stroke:none"
         d="m 1031.24,3096.03 c 0,-14.19 -11.5,-25.69 -25.69,-25.69 -14.183,0 -25.687,11.5 -25.687,25.69 0,14.19 11.504,25.69 25.687,25.69 14.19,0 25.69,-11.5 25.69,-25.69" /><path
         id="path30"
         style="fill:#f5775b;fill-opacity:1;fill-rule:nonzero;stroke:none"
         d="m 776.113,3007.55 12.297,42.15 -31.496,31.5 c -6.379,6.38 -8.016,16.1 -4.082,24.22 l 21.531,44.4 91.332,3.52 22.836,-22.84 -29.863,-7.03 -12.297,-50.93 c 0,0 7.027,-15.81 7.027,-21.08 0,-5.27 -14.05,-61.48 -14.05,-61.48 l -63.235,17.57" /><path
         id="path32"
         style="fill:#f35e4e;fill-opacity:1;fill-rule:nonzero;stroke:none"
         d="m 751.523,3093.62 80.797,-19.33 33.375,10.54 12.293,-28.1 -24.59,-5.27 -54.449,-3.51 -47.426,45.67" /><path
         id="path34"
         style="fill:none;stroke:#e74d4d;stroke-width:7.40129995;stroke-linecap:butt;stroke-linejoin:miter;stroke-miterlimit:10;stroke-dasharray:none;stroke-opacity:1"
         d="m 888.531,3130.5 -22.836,22.84 -28.101,-15.81" /><path
         id="path36"
         style="fill:none;stroke:#e74d4d;stroke-width:7.40129995;stroke-linecap:butt;stroke-linejoin:miter;stroke-miterlimit:10;stroke-dasharray:none;stroke-opacity:1"
         d="m 865.695,3153.34 -56.207,-3.52 -8.785,-7.03" /><path
         id="path38"
         style="fill:#f5775b;fill-opacity:1;fill-rule:nonzero;stroke:none"
         d="m 832.32,3074.29 33.375,10.54 c 0,0 19.321,21.08 31.618,17.57 12.292,-3.52 14.05,-12.3 14.05,-12.3 l -33.375,-33.37 -43.91,-14.05 -1.758,31.61" /><path
         id="path40"
         style="fill:none;stroke:#e74d4d;stroke-width:7.40129995;stroke-linecap:butt;stroke-linejoin:miter;stroke-miterlimit:10;stroke-dasharray:none;stroke-opacity:1"
         d="m 848.133,3137.53 -73.77,12.29 -22.84,-56.2 36.887,-43.92" /><path
         id="path42"
         style="fill:none;stroke:#e74d4d;stroke-width:7.40129995;stroke-linecap:butt;stroke-linejoin:miter;stroke-miterlimit:10;stroke-dasharray:none;stroke-opacity:1"
         d="m 911.363,3090.1 c 0,0 -13.172,15.81 -25.027,11.86 -11.856,-3.96 -20.641,-17.13 -20.641,-17.13 l -22.832,-3.95" /><path
         id="path44"
         style="fill:#e1e2eb;fill-opacity:1;fill-rule:nonzero;stroke:none"
         d="m 753.281,2974.18 21.082,49.18 c 0,0 40.395,1.75 73.77,-19.32 l -15.813,-49.18 -79.039,19.32" /><path
         id="path46"
         style="fill:#191825;fill-opacity:1;fill-rule:nonzero;stroke:none"
         d="m 1311.69,863.27 c 0,0 -11.51,24.671 -54.28,18.089 -42.76,-6.578 -47.69,-14.8 -52.63,-36.187 -4.93,-21.371 -19.73,-44.402 -29.6,-49.332 -9.87,-4.93 -46.05,-29.61 -75.66,-34.539 -29.61,-4.942 -32.89,-23.031 -26.32,-31.25 6.58,-8.231 118.42,-14.813 143.1,-11.52 0,0 83.88,1.641 103.61,8.231 19.74,6.578 -6.57,128.289 -8.22,136.508" /><path
         id="path48"
         style="fill:#191825;fill-opacity:1;fill-rule:nonzero;stroke:none"
         d="m 1097.4,863.27 c 0,0 -11.51,24.671 -54.27,18.089 -42.77,-6.578 -47.7,-14.8 -52.638,-36.187 -4.929,-21.371 -19.734,-44.402 -29.601,-49.332 -9.868,-4.93 -46.055,-29.61 -75.661,-34.539 -29.605,-4.942 -32.894,-23.031 -26.312,-31.25 6.574,-8.231 118.418,-14.813 143.092,-11.52 0,0 83.88,1.641 103.62,8.231 19.73,6.578 -6.58,128.289 -8.23,136.508" /><path
         id="path50"
         style="fill:#272135;fill-opacity:1;fill-rule:nonzero;stroke:none"
         d="m 1351.28,1475.66 c 0,0 12.52,68.12 -59.42,90.98 -71.93,22.86 -85.55,-10.38 -107.32,-72.5 -21.77,-62.13 18.4,-648.788 18.4,-648.788 0,0 87.65,-2 108.9,10.539 0,0 58.59,389.289 54.2,484.099 -4.39,94.81 -14.76,135.67 -14.76,135.67" /><path
         id="path52"
         style="fill:#f5775b;fill-opacity:1;fill-rule:nonzero;stroke:none"
         d="m 1095.54,3221.13 c 0,0 -48.67,-12.45 -76.23,-87.17 -27.572,-74.72 -9.19,-233.5 9.19,-252.18 18.37,-18.68 74.2,-11.54 151.61,14.01 81.79,27 109.43,112.03 124.05,168.12 27.99,107.41 -65.41,217.93 -208.62,157.22" /><path
         id="path54"
         style="fill:#f5775b;fill-opacity:1;fill-rule:nonzero;stroke:none"
         d="m 1270.07,2808.7 -39.47,141.45 c 0,0 -78.95,23.03 -128.29,-29.61 l -16.45,-23.02 v -92.11 c 0,0 82.24,-16.45 184.21,3.29" /><path
         id="path56"
         style="fill:#272135;fill-opacity:1;fill-rule:nonzero;stroke:none"
         d="m 1380.27,2047.18 c 0,0 29.6,-172.69 0,-370.05 -29.61,-197.38 -88.82,-217.11 -143.1,-217.11 -54.27,0 -69.07,157.9 -78.94,226.97 -9.87,69.08 -49.35,305.93 24.67,360.19 74.01,54.28 157.89,59.22 197.37,0" /><path
         id="path58"
         style="fill:#272135;fill-opacity:1;fill-rule:nonzero;stroke:none"
         d="m 1173.03,1815.28 c 0,0 59.21,157.89 -44.41,226.97 -103.61,69.08 -182.565,59.21 -207.233,-54.27 -24.672,-113.49 -29.61,-503.29 4.933,-582.24 34.539,-78.95 157.9,44.41 246.71,409.54" /><path
         id="path60"
         style="fill:#e1e2eb;fill-opacity:1;fill-rule:nonzero;stroke:none"
         d="m 1290.95,2809.45 c 0,0 -11.01,38.73 -20.88,42.01 -9.87,3.29 -131.58,16.45 -197.37,-23.02 -29.6,-23.03 -26.32,-39.48 -26.32,-39.48 0,0 196.39,37.68 244.57,20.49" /><path
         id="path62"
         style="fill:#272135;fill-opacity:1;fill-rule:nonzero;stroke:none"
         d="m 908.727,2518.38 c 0,0 -35.336,-444.59 -25.469,-615.64 13.16,-32.9 287.672,-41.93 333.732,-38.64 46.05,3.28 196.94,35.79 200.23,45.66 3.29,9.88 -28.73,448.28 -22.15,494.34 6.58,46.04 26.31,273.02 19.74,305.92 -6.58,32.89 -36.19,95.39 -98.69,108.55 0,0 -203.95,13.16 -348.682,-49.34 0,0 -108.77,-19 -177.27,-42.71 0,0 36.883,187.06 55.324,242.39 0,0 -50.054,36.88 -100.113,23.71 0,0 -92.098,-209.52 -110.559,-393.96 -2.129,-21.25 13.11,-40.34 34.235,-43.49 78.816,-11.77 239.672,-36.79 239.672,-36.79" /><path
         id="path64"
         style="fill:#272135;fill-opacity:1;fill-rule:nonzero;stroke:none"
         d="m 1079.28,1464.95 c 0,0 4.94,69.08 -69.08,83.89 -74.012,14.8 -83.88,-19.74 -98.684,-83.89 -14.801,-64.14 72.957,-623.559 72.957,-623.559 0,0 96.847,-5.571 116.587,9.23 0,0 22.63,387.359 7.82,481.109 -14.8,93.75 -29.6,133.22 -29.6,133.22" /><path
         id="path66"
         style="fill:none;stroke:#282c55;stroke-width:7.40129995;stroke-linecap:butt;stroke-linejoin:miter;stroke-miterlimit:10;stroke-dasharray:none;stroke-opacity:1"
         d="m 1192.77,1852.29 c 0,0 -69.08,-222.04 -120.89,-330.59" /><path
         id="path68"
         style="fill:none;stroke:#282c55;stroke-width:7.40129995;stroke-linecap:butt;stroke-linejoin:miter;stroke-miterlimit:10;stroke-dasharray:none;stroke-opacity:1"
         d="m 1052.14,1477.29 c 0,0 -41.94,24.67 -83.878,0" /><path
         id="path70"
         style="fill:none;stroke:#282c55;stroke-width:7.40129995;stroke-linecap:butt;stroke-linejoin:miter;stroke-miterlimit:10;stroke-dasharray:none;stroke-opacity:1"
         d="m 1059.54,1450.15 c 0,0 -34.53,19.74 -93.747,-22.2" /><path
         id="path72"
         style="fill:none;stroke:#282c55;stroke-width:7.40129995;stroke-linecap:butt;stroke-linejoin:miter;stroke-miterlimit:10;stroke-dasharray:none;stroke-opacity:1"
         d="m 1318.59,1506.89 c 0,0 -27.14,24.68 -88.82,-2.46" /><path
         id="path74"
         style="fill:none;stroke:#282c55;stroke-width:7.40129995;stroke-linecap:butt;stroke-linejoin:miter;stroke-miterlimit:10;stroke-dasharray:none;stroke-opacity:1"
         d="m 1298.85,1482.22 c 0,0 -39.47,19.74 -76.48,-9.87" /><path
         id="path76"
         style="fill:none;stroke:#282c55;stroke-width:7.40129995;stroke-linecap:butt;stroke-linejoin:miter;stroke-miterlimit:10;stroke-dasharray:none;stroke-opacity:1"
         d="m 1207.57,1442.75 14.8,-503.289" /><path
         id="path78"
         style="fill:none;stroke:#282c55;stroke-width:7.40129995;stroke-linecap:butt;stroke-linejoin:miter;stroke-miterlimit:10;stroke-dasharray:none;stroke-opacity:1"
         d="m 1003.62,1864.63 c 0,0 -55.921,-32.9 -78.944,19.73" /><path
         id="path80"
         style="fill:none;stroke:#282c55;stroke-width:7.40129995;stroke-linecap:butt;stroke-linejoin:miter;stroke-miterlimit:10;stroke-dasharray:none;stroke-opacity:1"
         d="m 947.699,1858.04 c 0,0 -26.312,-203.94 -19.734,-338.81" /><path
         id="path82"
         style="fill:none;stroke:#4b4384;stroke-width:7.40129995;stroke-linecap:butt;stroke-linejoin:miter;stroke-miterlimit:10;stroke-dasharray:none;stroke-opacity:1"
         d="m 970.73,2750.31 c 0,0 103.62,-54.27 34.53,-180.1" /><path
         id="path84"
         style="fill:none;stroke:#e74d4d;stroke-width:7.40129995;stroke-linecap:butt;stroke-linejoin:miter;stroke-miterlimit:10;stroke-dasharray:none;stroke-opacity:1"
         d="m 1117.52,2914.37 c 0,0 -17.27,-44.4 -75.25,-37" /><path
         id="path86"
         style="fill:#7a2a32;fill-opacity:1;fill-rule:nonzero;stroke:none"
         d="m 1043.1,3188.46 c 0,0 -28.1,-38.64 -29.86,-61.47 -1.76,-22.84 35.13,-45.67 40.4,-59.72 5.27,-14.06 -3.52,-43.91 1.75,-52.7 5.27,-8.78 7.03,-19.31 7.03,-19.31 l 1.76,-29.87 19.32,-3.51 c 0,0 19.32,54.45 33.37,57.97 14.05,3.51 28.1,-21.08 33.37,-33.38 5.27,-12.29 21.08,-45.67 21.08,-45.67 0,0 61.47,-15.8 73.77,-12.29 12.29,3.51 68.5,114.17 70.26,170.37 1.76,56.21 -36.89,112.42 -77.29,129.98 -40.39,17.57 -119.44,33.37 -194.96,-40.4" /><path
         id="path88"
         style="fill:#f35e4e;fill-opacity:1;fill-rule:nonzero;stroke:none"
         d="m 1070.63,3001.9 c 0,0 7,30.35 32.69,16.34 25.69,-14.01 -4.67,-86.39 -25.69,-81.72 -21.01,4.66 -11.67,53.7 -7,65.38" /><path
         id="path90"
         style="fill:#6c2931;fill-opacity:1;fill-rule:nonzero;stroke:none"
         d="m 1051.88,3197.25 c 0,0 -1.76,47.42 54.45,82.55 56.21,35.13 147.54,-17.57 159.84,-45.67 12.29,-28.1 50.94,-64.99 57.96,-101.87 7.03,-36.89 -17.56,-128.22 -43.91,-152.81 -8.78,-7.03 -8.78,12.29 -8.78,12.29 0,0 -17.57,-19.32 -28.1,-24.59 -10.55,-5.27 -28.11,31.62 -28.11,31.62 0,0 -8.78,-14.06 -21.08,-21.08 -12.29,-7.03 -17.56,42.16 -17.56,42.16 0,0 -10.54,52.69 -31.62,77.28 -21.08,24.59 -82.55,75.53 -93.09,100.12" /><path
         id="path92"
         style="fill:none;stroke:#4b4384;stroke-width:7.40129995;stroke-linecap:butt;stroke-linejoin:miter;stroke-miterlimit:10;stroke-dasharray:none;stroke-opacity:1"
         d="m 1327.64,2700.17 c 0,-15.81 -63.23,-331.97 -52.69,-374.13 10.54,-42.16 57.96,-342.51 57.96,-342.51" /><path
         id="path94"
         style="fill:none;stroke:#4b4384;stroke-width:7.40129995;stroke-linecap:butt;stroke-linejoin:miter;stroke-miterlimit:10;stroke-dasharray:none;stroke-opacity:1"
         d="m 742.746,2636.94 c 42.152,34.25 42.152,71.13 42.152,71.13 0,0 15.805,-28.98 7.907,-55.32" /><path
         id="path96"
         style="fill:none;stroke:#52222a;stroke-width:7.40129995;stroke-linecap:butt;stroke-linejoin:miter;stroke-miterlimit:10;stroke-dasharray:none;stroke-opacity:1"
         d="m 1144.97,3179.68 c 0,0 72.02,-63.23 98.37,-94.85" /><path
         id="path98"
         style="fill:none;stroke:#52222a;stroke-width:7.40129995;stroke-linecap:butt;stroke-linejoin:miter;stroke-miterlimit:10;stroke-dasharray:none;stroke-opacity:1"
         d="m 1218.74,3112.94 c 0,0 14.05,47.42 79.04,56.2" /><path
         id="path100"
         style="fill:none;stroke:#52222a;stroke-width:7.40129995;stroke-linecap:butt;stroke-linejoin:miter;stroke-miterlimit:10;stroke-dasharray:none;stroke-opacity:1"
         d="m 1187.13,3141.04 c 0,0 -24.59,-1.76 -31.62,-36.89" /><path
         id="path102"
         style="fill:#c7dbf3;fill-opacity:1;fill-rule:nonzero;stroke:none"
         d="M 3096.39,2478.85 H 1800.13 c -58.2,0 -105.39,47.19 -105.39,105.39 v 642.87 c 0,58.2 47.19,105.38 105.39,105.38 h 1296.26 c 58.21,0 105.39,-47.18 105.39,-105.38 v -642.87 c 0,-58.2 -47.18,-105.39 -105.39,-105.39" /><path
         id="path104"
         style="fill:#a5e2ec;fill-opacity:1;fill-rule:nonzero;stroke:none"
         d="M 3187.05,2419.16 H 1709.48 c -66.34,0 -120.12,53.79 -120.12,120.13 v 732.77 c 0,66.35 53.78,120.13 120.12,120.13 h 1477.57 c 66.34,0 120.12,-53.78 120.12,-120.13 v -732.77 c 0,-66.34 -53.78,-120.13 -120.12,-120.13" /><path
         id="path106"
         style="fill:#ffffff;fill-opacity:1;fill-rule:nonzero;stroke:none"
         d="m 3175.44,2904.36 c 0,-152.44 -123.58,-276.01 -276.01,-276.01 -152.43,0 -276.01,123.57 -276.01,276.01 0,152.43 123.58,276 276.01,276 152.43,0 276.01,-123.57 276.01,-276" /><g
         id="g108"><g
           clip-path="url(#clipPath114)"
           id="g110"><path
             id="path116"
             style="fill:#7b242a;fill-opacity:1;fill-rule:nonzero;stroke:none"
             d="m 3033.15,2924.08 c 0,-72.65 -58.89,-131.54 -131.53,-131.54 -72.65,0 -131.55,58.89 -131.55,131.54 0,72.65 58.9,131.54 131.55,131.54 72.64,0 131.53,-58.89 131.53,-131.54" /><path
             id="path118"
             style="fill:#5dc6e4;fill-opacity:1;fill-rule:nonzero;stroke:none"
             d="m 3121.98,2588.23 c -5.91,117.8 -103.29,211.49 -222.55,211.49 -119.26,0 -216.64,-93.69 -222.55,-211.49 h 445.1" /><path
             id="path120"
             style="fill:#f35d4c;fill-opacity:1;fill-rule:nonzero;stroke:none"
             d="m 2971.65,2766.71 c 0,-39.89 -32.34,-72.22 -72.22,-72.22 -39.88,0 -72.22,32.33 -72.22,72.22 0,39.88 32.34,72.21 72.22,72.21 39.88,0 72.22,-32.33 72.22,-72.21" /><path
             id="path122"
             style="fill:#f35d4c;fill-opacity:1;fill-rule:nonzero;stroke:none"
             d="m 3048.97,2892.72 c 0,-16.28 -13.19,-29.48 -29.47,-29.48 -16.28,0 -29.48,13.2 -29.48,29.48 0,16.28 13.2,29.48 29.48,29.48 16.28,0 29.47,-13.2 29.47,-29.48" /><path
             id="path124"
             style="fill:#f35d4c;fill-opacity:1;fill-rule:nonzero;stroke:none"
             d="m 2803.32,2892.72 c 0,-16.28 -13.2,-29.48 -29.48,-29.48 -16.28,0 -29.48,13.2 -29.48,29.48 0,16.28 13.2,29.48 29.48,29.48 16.28,0 29.48,-13.2 29.48,-29.48" /><path
             id="path126"
             style="fill:#f6816b;fill-opacity:1;fill-rule:nonzero;stroke:none"
             d="m 3015.25,2892.72 c 0,-64.31 -52.13,-116.44 -116.44,-116.44 -64.3,0 -116.44,52.13 -116.44,116.44 0,64.31 52.14,116.44 116.44,116.44 64.31,0 116.44,-52.13 116.44,-116.44" /><path
             id="path128"
             style="fill:#7b242a;fill-opacity:1;fill-rule:nonzero;stroke:none"
             d="m 3021.95,2932.48 c -13.01,-38.26 -66.4,-54.7 -119.23,-36.73 -52.83,17.97 -85.12,63.55 -72.1,101.82 13.01,38.25 66.4,54.7 119.23,36.73 52.83,-17.97 85.12,-63.56 72.1,-101.82" /></g></g><path
         id="path130"
         style="fill:#ffffff;fill-opacity:1;fill-rule:nonzero;stroke:none"
         d="M 2441.24,2513.99 H 1833.5 c -53.35,0 -96.6,43.24 -96.6,96.6 v 0 c 0,53.35 43.25,96.6 96.6,96.6 h 607.74 c 53.35,0 96.61,-43.25 96.61,-96.6 v 0 c 0,-53.36 -43.26,-96.6 -96.61,-96.6" /><path
         id="path132"
         style="fill:#f8990f;fill-opacity:1;fill-rule:nonzero;stroke:none"
         d="m 1880.17,2585.36 -23.04,-12.11 c -2.17,-1.14 -4.7,0.7 -4.29,3.12 l 4.4,25.65 c 0.16,0.96 -0.15,1.94 -0.85,2.62 l -18.64,18.17 c -1.75,1.71 -0.78,4.69 1.64,5.04 l 25.76,3.74 c 0.96,0.14 1.79,0.75 2.22,1.62 l 11.53,23.34 c 1.08,2.2 4.21,2.2 5.3,0 l 11.52,-23.34 c 0.43,-0.87 1.26,-1.48 2.22,-1.62 l 25.76,-3.74 c 2.42,-0.35 3.39,-3.33 1.64,-5.04 l -18.64,-18.17 c -0.7,-0.68 -1.02,-1.66 -0.85,-2.62 l 4.4,-25.65 c 0.42,-2.42 -2.12,-4.26 -4.29,-3.12 l -23.04,12.11 c -0.86,0.46 -1.89,0.46 -2.75,0" /><path
         id="path134"
         style="fill:#f8990f;fill-opacity:1;fill-rule:nonzero;stroke:none"
         d="m 2008.48,2585.36 -23.04,-12.11 c -2.16,-1.14 -4.7,0.7 -4.29,3.12 l 4.4,25.65 c 0.17,0.96 -0.15,1.94 -0.85,2.62 l -18.63,18.17 c -1.76,1.71 -0.79,4.69 1.63,5.04 l 25.76,3.74 c 0.97,0.14 1.8,0.75 2.23,1.62 l 11.52,23.34 c 1.08,2.2 4.21,2.2 5.3,0 l 11.52,-23.34 c 0.43,-0.87 1.26,-1.48 2.23,-1.62 l 25.75,-3.74 c 2.42,-0.35 3.4,-3.33 1.64,-5.04 l -18.64,-18.17 c -0.7,-0.68 -1.01,-1.66 -0.85,-2.62 l 4.4,-25.65 c 0.42,-2.42 -2.12,-4.26 -4.29,-3.12 l -23.04,12.11 c -0.86,0.46 -1.89,0.46 -2.75,0" /><path
         id="path136"
         style="fill:#f8990f;fill-opacity:1;fill-rule:nonzero;stroke:none"
         d="m 2136.79,2585.36 -23.03,-12.11 c -2.17,-1.14 -4.71,0.7 -4.3,3.12 l 4.41,25.65 c 0.16,0.96 -0.16,1.94 -0.86,2.62 l -18.63,18.17 c -1.76,1.71 -0.79,4.69 1.64,5.04 l 25.75,3.74 c 0.97,0.14 1.8,0.75 2.23,1.62 l 11.52,23.34 c 1.08,2.2 4.22,2.2 5.3,0 l 11.52,-23.34 c 0.43,-0.87 1.26,-1.48 2.23,-1.62 l 25.75,-3.74 c 2.43,-0.35 3.4,-3.33 1.64,-5.04 l -18.64,-18.17 c -0.69,-0.68 -1.01,-1.66 -0.85,-2.62 l 4.4,-25.65 c 0.42,-2.42 -2.12,-4.26 -4.29,-3.12 l -23.04,12.11 c -0.86,0.46 -1.88,0.46 -2.75,0" /><path
         id="path138"
         style="fill:#f8990f;fill-opacity:1;fill-rule:nonzero;stroke:none"
         d="m 2265.1,2585.36 -23.03,-12.11 c -2.17,-1.14 -4.71,0.7 -4.3,3.12 l 4.41,25.65 c 0.16,0.96 -0.16,1.94 -0.86,2.62 l -18.63,18.17 c -1.76,1.71 -0.79,4.69 1.64,5.04 l 25.75,3.74 c 0.97,0.14 1.8,0.75 2.23,1.62 l 11.52,23.34 c 1.08,2.2 4.22,2.2 5.3,0 l 11.52,-23.34 c 0.43,-0.87 1.27,-1.48 2.23,-1.62 l 25.76,-3.74 c 2.42,-0.35 3.39,-3.33 1.63,-5.04 l -18.63,-18.17 c -0.7,-0.68 -1.02,-1.66 -0.86,-2.62 l 4.41,-25.65 c 0.41,-2.42 -2.13,-4.26 -4.3,-3.12 l -23.03,12.11 c -0.86,0.46 -1.89,0.46 -2.76,0" /><path
         id="path140"
         style="fill:#c4d8da;fill-opacity:1;fill-rule:nonzero;stroke:none"
         d="m 2393.42,2585.36 -23.04,-12.11 c -2.17,-1.14 -4.7,0.7 -4.29,3.12 l 4.4,25.65 c 0.17,0.96 -0.15,1.94 -0.85,2.62 l -18.64,18.17 c -1.76,1.71 -0.78,4.69 1.64,5.04 l 25.76,3.74 c 0.96,0.14 1.79,0.75 2.22,1.62 l 11.52,23.34 c 1.08,2.2 4.22,2.2 5.3,0 l 11.52,-23.34 c 0.44,-0.87 1.27,-1.48 2.23,-1.62 l 25.76,-3.74 c 2.42,-0.35 3.39,-3.33 1.64,-5.04 l -18.64,-18.17 c -0.7,-0.68 -1.02,-1.66 -0.85,-2.62 l 4.4,-25.65 c 0.41,-2.42 -2.12,-4.26 -4.29,-3.12 l -23.04,12.11 c -0.86,0.46 -1.89,0.46 -2.75,0" /><path
         id="path142"
         style="fill:none;stroke:#ffffff;stroke-width:42.15499878;stroke-linecap:round;stroke-linejoin:round;stroke-miterlimit:10;stroke-dasharray:none;stroke-opacity:1"
         d="m 1796.62,3093.62 h 442.62" /><path
         id="path144"
         style="fill:none;stroke:#ffffff;stroke-width:42.15499878;stroke-linecap:round;stroke-linejoin:round;stroke-miterlimit:10;stroke-dasharray:none;stroke-opacity:1"
         d="M 1796.62,2837.17 H 2362.2" /><path
         id="path146"
         style="fill:none;stroke:#ffffff;stroke-width:42.15499878;stroke-linecap:round;stroke-linejoin:round;stroke-miterlimit:10;stroke-dasharray:none;stroke-opacity:1"
         d="m 1796.62,2970.66 h 193.21" /><path
         id="path148"
         style="fill:none;stroke:#ffffff;stroke-width:42.15499878;stroke-linecap:round;stroke-linejoin:round;stroke-miterlimit:10;stroke-dasharray:none;stroke-opacity:1"
         d="m 2095.22,2970.66 h 393.44" /><path
         id="path150"
         style="fill:none;stroke:#45b2b1;stroke-width:42.15499878;stroke-linecap:round;stroke-linejoin:round;stroke-miterlimit:10;stroke-dasharray:none;stroke-opacity:1"
         d="m 2830.29,3261.35 h 271.38" /><path
         id="path152"
         style="fill:none;stroke:#45b2b1;stroke-width:10.5387001;stroke-linecap:round;stroke-linejoin:round;stroke-miterlimit:10;stroke-dasharray:none;stroke-opacity:1"
         d="m 1894.98,3393.09 h 484.78" /><path
         id="path154"
         style="fill:none;stroke:#45b2b1;stroke-width:10.5387001;stroke-linecap:round;stroke-linejoin:round;stroke-miterlimit:10;stroke-dasharray:none;stroke-opacity:1"
         d="m 2551.01,3393.09 h 176.54" /><path
         id="path156"
         style="fill:none;stroke:#45b2b1;stroke-width:10.5387001;stroke-linecap:round;stroke-linejoin:round;stroke-miterlimit:10;stroke-dasharray:none;stroke-opacity:1"
         d="m 2495.69,2420.9 h 548.02" /><path
         id="path158"
         style="fill:none;stroke:#45b2b1;stroke-width:10.5387001;stroke-linecap:round;stroke-linejoin:round;stroke-miterlimit:10;stroke-dasharray:none;stroke-opacity:1"
         d="M 3303.66,3079.56 V 2963.64" /><path
         id="path160"
         style="fill:none;stroke:#45b2b1;stroke-width:10.5387001;stroke-linecap:round;stroke-linejoin:round;stroke-miterlimit:10;stroke-dasharray:none;stroke-opacity:1"
         d="M 1589.36,2939.04 V 2598.29" /><path
         id="path162"
         style="fill:#c7dbf3;fill-opacity:1;fill-rule:nonzero;stroke:none"
         d="M 3006.27,1540.54 H 1890.26 c -50.11,0 -90.73,40.62 -90.73,90.74 v 553.46 c 0,50.11 40.62,90.74 90.73,90.74 h 1116.01 c 50.1,0 90.73,-40.63 90.73,-90.74 v -553.46 c 0,-50.12 -40.63,-90.74 -90.73,-90.74" /><path
         id="path164"
         style="fill:#cdeff8;fill-opacity:1;fill-rule:nonzero;stroke:none"
         d="M 3084.31,1489.15 H 1812.22 c -57.12,0 -103.42,46.3 -103.42,103.42 v 630.87 c 0,57.12 46.3,103.42 103.42,103.42 h 1272.09 c 57.12,0 103.42,-46.3 103.42,-103.42 v -630.87 c 0,-57.12 -46.3,-103.42 -103.42,-103.42" /><path
         id="path166"
         style="fill:#cdeff8;fill-opacity:1;fill-rule:nonzero;stroke:none"
         d="m 1800.13,1400.39 v -243.11 c 0,-50.06 40.58,-90.64 90.65,-90.64 h 1114.97 c 50.07,0 90.64,40.58 90.64,90.64 v 243.11 H 1800.13" /><path
         id="path168"
         style="fill:#cdeff8;fill-opacity:1;fill-rule:nonzero;stroke:none"
         d="m 3159.63,3469.47 v 243.11 c 0,50.06 -40.58,90.64 -90.65,90.64 H 1841.6 c -50.07,0 -90.65,-40.58 -90.65,-90.64 v -243.11 h 1408.68" /><path
         id="path170"
         style="fill:#ffffff;fill-opacity:1;fill-rule:nonzero;stroke:none"
         d="m 3074.31,1906.87 c 0,-131.24 -106.38,-237.63 -237.62,-237.63 -131.23,0 -237.62,106.39 -237.62,237.63 0,131.24 106.39,237.63 237.62,237.63 131.24,0 237.62,-106.39 237.62,-237.63" /><g
         id="g172"><g
           clip-path="url(#clipPath178)"
           id="g174"><path
             id="path180"
             style="fill:#5dc6e4;fill-opacity:1;fill-rule:nonzero;stroke:none"
             d="m 2951.81,1923.85 c 0,-62.54 -50.69,-113.25 -113.24,-113.25 -62.55,0 -113.24,50.71 -113.24,113.25 0,62.54 50.69,113.25 113.24,113.25 62.55,0 113.24,-50.71 113.24,-113.25" /><path
             id="path182"
             style="fill:#5dc6e4;fill-opacity:1;fill-rule:nonzero;stroke:none"
             d="m 3028.29,1634.71 c -5.09,101.41 -88.92,182.07 -191.6,182.07 -102.68,0 -186.51,-80.66 -191.6,-182.07 h 383.2" /><path
             id="path184"
             style="fill:#a5e2ec;fill-opacity:1;fill-rule:nonzero;stroke:none"
             d="m 2898.86,1788.37 c 0,-34.34 -27.83,-62.18 -62.17,-62.18 -34.34,0 -62.17,27.84 -62.17,62.18 0,34.33 27.83,62.16 62.17,62.16 34.34,0 62.17,-27.83 62.17,-62.16" /><path
             id="path186"
             style="fill:#cdeff8;fill-opacity:1;fill-rule:nonzero;stroke:none"
             d="m 2965.44,1896.85 c 0,-14.01 -11.36,-25.37 -25.39,-25.37 -14.01,0 -25.37,11.36 -25.37,25.37 0,14.02 11.36,25.38 25.37,25.38 14.03,0 25.39,-11.36 25.39,-25.38" /><path
             id="path188"
             style="fill:#cdeff8;fill-opacity:1;fill-rule:nonzero;stroke:none"
             d="m 2753.94,1896.85 c 0,-14.01 -11.36,-25.37 -25.37,-25.37 -14.02,0 -25.38,11.36 -25.38,25.37 0,14.02 11.36,25.38 25.38,25.38 14.01,0 25.37,-11.36 25.37,-25.38" /><path
             id="path190"
             style="fill:#cdeff8;fill-opacity:1;fill-rule:nonzero;stroke:none"
             d="m 2936.41,1896.85 c 0,-55.36 -44.88,-100.24 -100.25,-100.24 -55.36,0 -100.25,44.88 -100.25,100.24 0,55.37 44.89,100.26 100.25,100.26 55.37,0 100.25,-44.89 100.25,-100.26" /><path
             id="path192"
             style="fill:#5dc6e4;fill-opacity:1;fill-rule:nonzero;stroke:none"
             d="m 2942.17,1931.08 c -11.2,-32.93 -57.15,-47.09 -102.64,-31.62 -45.49,15.47 -73.28,54.72 -62.08,87.66 11.21,32.94 57.17,47.1 102.65,31.63 45.49,-15.48 73.29,-54.72 62.07,-87.67" /></g></g><path
         id="path194"
         style="fill:#a5e2ec;fill-opacity:1;fill-rule:nonzero;stroke:none"
         d="m 2442.21,1570.79 h -523.22 c -45.93,0 -83.17,37.23 -83.17,83.16 v 0 c 0,45.94 37.24,83.18 83.17,83.18 h 523.22 c 45.94,0 83.18,-37.24 83.18,-83.18 v 0 c 0,-45.93 -37.24,-83.16 -83.18,-83.16" /><path
         id="path196"
         style="fill:#ffffff;fill-opacity:1;fill-rule:nonzero;stroke:none"
         d="m 1959.17,1632.23 -19.84,-10.42 c -1.86,-0.98 -4.05,0.61 -3.69,2.68 l 3.79,22.09 c 0.14,0.83 -0.13,1.67 -0.73,2.25 l -16.05,15.65 c -1.51,1.46 -0.68,4.03 1.41,4.34 l 22.18,3.22 c 0.83,0.12 1.54,0.64 1.92,1.39 l 9.91,20.09 c 0.94,1.9 3.63,1.9 4.57,0 l 9.92,-20.09 c 0.37,-0.75 1.08,-1.27 1.91,-1.39 l 22.18,-3.22 c 2.08,-0.31 2.92,-2.88 1.41,-4.34 l -16.05,-15.65 c -0.6,-0.58 -0.88,-1.42 -0.73,-2.25 l 3.78,-22.09 c 0.36,-2.07 -1.82,-3.66 -3.69,-2.68 l -19.83,10.42 c -0.74,0.39 -1.63,0.39 -2.37,0" /><path
         id="path198"
         style="fill:#ffffff;fill-opacity:1;fill-rule:nonzero;stroke:none"
         d="m 2069.64,1632.23 -19.84,-10.42 c -1.86,-0.98 -4.05,0.61 -3.69,2.68 l 3.79,22.09 c 0.14,0.83 -0.13,1.67 -0.73,2.25 l -16.05,15.65 c -1.51,1.46 -0.68,4.03 1.41,4.34 l 22.18,3.22 c 0.83,0.12 1.54,0.64 1.91,1.39 l 9.92,20.09 c 0.93,1.9 3.63,1.9 4.57,0 l 9.91,-20.09 c 0.37,-0.75 1.09,-1.27 1.92,-1.39 l 22.18,-3.22 c 2.08,-0.31 2.92,-2.88 1.41,-4.34 l -16.05,-15.65 c -0.6,-0.58 -0.88,-1.42 -0.74,-2.25 l 3.79,-22.09 c 0.36,-2.07 -1.82,-3.66 -3.69,-2.68 l -19.83,10.42 c -0.74,0.39 -1.63,0.39 -2.37,0" /><path
         id="path200"
         style="fill:#ffffff;fill-opacity:1;fill-rule:nonzero;stroke:none"
         d="m 2180.11,1632.23 -19.84,-10.42 c -1.87,-0.98 -4.05,0.61 -3.69,2.68 l 3.79,22.09 c 0.14,0.83 -0.13,1.67 -0.73,2.25 l -16.05,15.65 c -1.51,1.46 -0.68,4.03 1.41,4.34 l 22.17,3.22 c 0.83,0.12 1.55,0.64 1.92,1.39 l 9.92,20.09 c 0.93,1.9 3.63,1.9 4.56,0 l 9.92,-20.09 c 0.37,-0.75 1.09,-1.27 1.92,-1.39 l 22.17,-3.22 c 2.09,-0.31 2.92,-2.88 1.42,-4.34 l -16.05,-15.65 c -0.6,-0.58 -0.88,-1.42 -0.74,-2.25 l 3.79,-22.09 c 0.36,-2.07 -1.82,-3.66 -3.69,-2.68 l -19.83,10.42 c -0.75,0.39 -1.63,0.39 -2.37,0" /><path
         id="path202"
         style="fill:#ffffff;fill-opacity:1;fill-rule:nonzero;stroke:none"
         d="m 2290.58,1632.23 -19.84,-10.42 c -1.87,-0.98 -4.05,0.61 -3.69,2.68 l 3.79,22.09 c 0.14,0.83 -0.14,1.67 -0.74,2.25 l -16.05,15.65 c -1.5,1.46 -0.67,4.03 1.42,4.34 l 22.17,3.22 c 0.83,0.12 1.55,0.64 1.92,1.39 l 9.92,20.09 c 0.93,1.9 3.63,1.9 4.56,0 l 9.92,-20.09 c 0.37,-0.75 1.09,-1.27 1.92,-1.39 l 22.17,-3.22 c 2.09,-0.31 2.92,-2.88 1.41,-4.34 l -16.05,-15.65 c -0.59,-0.58 -0.87,-1.42 -0.73,-2.25 l 3.79,-22.09 c 0.36,-2.07 -1.83,-3.66 -3.69,-2.68 l -19.83,10.42 c -0.75,0.39 -1.64,0.39 -2.37,0" /><path
         id="path204"
         style="fill:#ffffff;fill-opacity:1;fill-rule:nonzero;stroke:none"
         d="m 2401.05,1632.23 -19.84,-10.42 c -1.87,-0.98 -4.05,0.61 -3.69,2.68 l 3.79,22.09 c 0.14,0.83 -0.14,1.67 -0.74,2.25 l -16.05,15.65 c -1.51,1.46 -0.67,4.03 1.42,4.34 l 22.17,3.22 c 0.83,0.12 1.55,0.64 1.92,1.39 l 9.92,20.09 c 0.93,1.9 3.63,1.9 4.56,0 l 9.92,-20.09 c 0.37,-0.75 1.08,-1.27 1.91,-1.39 l 22.18,-3.22 c 2.09,-0.31 2.92,-2.88 1.41,-4.34 l -16.05,-15.65 c -0.59,-0.58 -0.87,-1.42 -0.72,-2.25 l 3.78,-22.09 c 0.36,-2.07 -1.83,-3.66 -3.69,-2.68 l -19.84,10.42 c -0.74,0.39 -1.62,0.39 -2.36,0" /><path
         id="path206"
         style="fill:none;stroke:#ffffff;stroke-width:36.29290009;stroke-linecap:round;stroke-linejoin:round;stroke-miterlimit:10;stroke-dasharray:none;stroke-opacity:1"
         d="m 1887.24,2069.81 h 381.07" /><path
         id="path208"
         style="fill:none;stroke:#ffffff;stroke-width:36.29290009;stroke-linecap:round;stroke-linejoin:round;stroke-miterlimit:10;stroke-dasharray:none;stroke-opacity:1"
         d="m 1887.24,1849.03 h 486.93" /><path
         id="path210"
         style="fill:none;stroke:#ffffff;stroke-width:36.29290009;stroke-linecap:round;stroke-linejoin:round;stroke-miterlimit:10;stroke-dasharray:none;stroke-opacity:1"
         d="m 1887.24,1963.96 h 166.34" /><path
         id="path212"
         style="fill:none;stroke:#ffffff;stroke-width:36.29290009;stroke-linecap:round;stroke-linejoin:round;stroke-miterlimit:10;stroke-dasharray:none;stroke-opacity:1"
         d="m 2144.31,1963.96 h 338.73" /><path
         id="path214"
         style="fill:none;stroke:#a5e2ec;stroke-width:36.29290009;stroke-linecap:round;stroke-linejoin:round;stroke-miterlimit:10;stroke-dasharray:none;stroke-opacity:1"
         d="m 2777.16,2214.23 h 233.65" /><path
         id="path216"
         style="fill:none;stroke:#45b2b1;stroke-width:10.5387001;stroke-linecap:round;stroke-linejoin:round;stroke-miterlimit:10;stroke-dasharray:none;stroke-opacity:1"
         d="m 1462.89,2932.02 v 94.85" /><path
         id="path218"
         style="fill:none;stroke:#45b2b1;stroke-width:10.5387001;stroke-linecap:round;stroke-linejoin:round;stroke-miterlimit:10;stroke-dasharray:none;stroke-opacity:1"
         d="m 1462.89,3090.1 v 258.2" /><path
         id="path220"
         style="fill:none;stroke:#45b2b1;stroke-width:10.5387001;stroke-linecap:round;stroke-linejoin:round;stroke-miterlimit:10;stroke-dasharray:none;stroke-opacity:1"
         d="m 1494.51,3415.05 c 0,-16.49 -13.37,-29.86 -29.86,-29.86 -16.49,0 -29.86,13.37 -29.86,29.86 0,16.49 13.37,29.85 29.86,29.85 16.49,0 29.86,-13.36 29.86,-29.85 z" /><path
         id="path222"
         style="fill:none;stroke:#45b2b1;stroke-width:10.5387001;stroke-linecap:round;stroke-linejoin:round;stroke-miterlimit:10;stroke-dasharray:none;stroke-opacity:1"
         d="M 3236.91,1625.21 H 3124.5 v 112.42 h 112.41 z" /><path
         id="path224"
         style="fill:none;stroke:#45b2b1;stroke-width:10.5387001;stroke-linecap:round;stroke-linejoin:round;stroke-miterlimit:10;stroke-dasharray:none;stroke-opacity:1"
         d="m 3286.09,1428.49 h -70.25 v 70.26 h 70.25 z" /><path
         id="path226"
         style="fill:none;stroke:#45b2b1;stroke-width:10.5387001;stroke-linecap:round;stroke-linejoin:round;stroke-miterlimit:10;stroke-dasharray:none;stroke-opacity:1"
         d="M 1800.13,1400.39 H 2717" /><path
         id="path228"
         style="fill:#f35e4e;fill-opacity:1;fill-rule:nonzero;stroke:none"
         d="m 4041.37,2902.16 c 0,0 50.94,-28.1 103.64,42.16 -1.76,17.56 -79.05,47.42 -79.05,47.42 l -24.59,-89.58" /><path
         id="path230"
         style="fill:#2c3d79;fill-opacity:1;fill-rule:nonzero;stroke:none"
         d="m 4084.16,3081.41 57.59,-159.55 -59.53,-37.51 -60.51,168.44 62.45,28.62" /><path
         id="path232"
         style="fill:#f04248;fill-opacity:1;fill-rule:nonzero;stroke:none"
         d="m 4265.97,3205.48 -49.24,-52.22 -53.76,85.36 68.35,21.86 34.65,-55" /><path
         id="path234"
         style="fill:#f04248;fill-opacity:1;fill-rule:nonzero;stroke:none"
         d="m 4194.06,3198.15 -11.92,21.25 -2.09,-1.32 -59.04,83.93 -182.21,-229.85 -32.51,-20.49 2.73,-4.33 25.95,-41.19 2.72,-4.33 32.52,20.48 286,65.12 -50.22,89.48 2.09,1.31 -14.02,19.94" /><path
         id="path236"
         style="fill:#2c3d79;fill-opacity:1;fill-rule:nonzero;stroke:none"
         d="m 4282.57,3061.38 v 0 c -10.83,-6.82 -25.12,-3.57 -31.95,7.25 l -150.56,238.98 c -6.81,10.83 -3.57,25.13 7.26,31.95 v 0 c 10.82,6.82 25.13,3.57 31.94,-7.25 l 150.56,-238.98 c 6.82,-10.82 3.57,-25.13 -7.25,-31.95" /><path
         id="path238"
         style="fill:#f5775b;fill-opacity:1;fill-rule:nonzero;stroke:none"
         d="m 3992.35,2936.1 c 0,0 -9.27,-20.2 -10.4,-30.68 -1.14,-10.48 -27.69,-254.94 -27.69,-254.94 l -170.21,107.65 -49.65,-147.38 c 0,0 227.55,-84.78 290.41,-91.61 34.54,-7.28 44.18,16.4 48.06,19.52 3.86,3.11 -15.69,376.26 -15.69,376.26 0,0 -12.14,50.79 -64.83,21.18" /><path
         id="path240"
         style="fill:#4ead8b;fill-opacity:1;fill-rule:nonzero;stroke:none"
         d="m 3725.21,2809.07 228.34,-151.06 -49.18,-179.16 -200.24,151.06 c 0,0 -35.13,94.85 21.08,179.16" /><path
         id="path242"
         style="fill:#c7dbf3;fill-opacity:1;fill-rule:nonzero;stroke:none"
         d="m 3252.12,709.43 c 0,-25.469 245.87,-46.121 549.18,-46.121 303.33,0 549.2,20.652 549.2,46.121 0,25.468 -245.87,46.109 -549.2,46.109 -303.31,0 -549.18,-20.641 -549.18,-46.109" /><path
         id="path244"
         style="fill:#2c3d79;fill-opacity:1;fill-rule:nonzero;stroke:none"
         d="m 3542.78,769.52 c 0,0 61.48,-64.29 86.64,-78.258 -5.59,-11.172 -95.03,-11.172 -128.56,5.59 -33.54,16.769 -58.7,55.898 -58.7,55.898 l 2.8,-41.918 h -16.77 c 0,0 -16.77,58.688 -16.77,72.66 0,13.977 16.77,33.539 16.77,33.539 l 114.59,-47.511" /><path
         id="path246"
         style="fill:#f5775b;fill-opacity:1;fill-rule:nonzero;stroke:none"
         d="m 3567.94,1596.81 -61.49,-754.63 -72.67,5.59 c 0,0 -83.85,553.4 -50.31,743.45 33.54,190.06 184.47,5.59 184.47,5.59" /><path
         id="path248"
         style="fill:#f5775b;fill-opacity:1;fill-rule:nonzero;stroke:none"
         d="m 3506.45,842.18 c 0,0 22.35,-58.688 53.1,-86.641 30.74,-27.949 -47.51,-27.949 -81.05,0 -33.54,27.953 -36.34,44.723 -47.52,50.313 -11.18,5.589 2.8,41.918 2.8,41.918 l 72.67,-5.59" /><path
         id="path250"
         style="fill:#2c3d79;fill-opacity:1;fill-rule:nonzero;stroke:none"
         d="m 4047.45,782.18 c 0,0 71.44,-52.989 98.59,-62.52 -3.62,-11.969 -91.78,-27.051 -127.66,-16.168 -35.89,10.879 -67.28,45.207 -67.28,45.207 l 9.82,-40.847 -16.53,-2.832 c 0,0 -26.42,55.031 -28.78,68.8 -2.35,13.77 10.88,35.879 10.88,35.879 l 120.96,-27.519" /><path
         id="path252"
         style="fill:#f5775b;fill-opacity:1;fill-rule:nonzero;stroke:none"
         d="m 3932.8,1601.88 66.59,-754.189 -72.57,-6.742 c 0,0 -175.93,531.341 -174.9,724.331 1.03,192.99 180.88,36.6 180.88,36.6" /><path
         id="path254"
         style="fill:#f5775b;fill-opacity:1;fill-rule:nonzero;stroke:none"
         d="m 3999.39,847.691 c 0,0 31.93,-54.082 66.94,-76.453 35.02,-22.367 -42.11,-35.558 -79.89,-13.656 -37.76,21.887 -43.35,37.949 -55.31,41.578 -11.96,3.621 -4.31,41.789 -4.31,41.789 l 72.57,6.742" /><path
         id="path256"
         style="fill:#2c3d79;fill-opacity:1;fill-rule:nonzero;stroke:none"
         d="m 3851.62,2245.92 3.56,-86.74 c 0,0 56.21,-119.44 73.78,-249.42 17.56,-129.98 24.59,-389.93 24.59,-389.93 l 38.64,-470.73 c 0,0 -77.28,-28.11 -140.51,-10.54 0,0 -77.29,263.47 -98.37,354.81 -21.08,91.33 -17.56,266.98 -17.56,266.98 l -63.23,245.9 c 0,0 -91.34,-358.31 -94.86,-407.5 -3.5,-49.18 -45.66,-467.22 -45.66,-467.22 0,0 -59.72,-17.56 -133.49,3.52 0,0 -42.16,379.39 -38.64,590.16 7.02,158.09 17.56,238.89 17.56,238.89 0,0 -31.61,80.79 10.54,235.36 38.64,87.82 63.23,108.9 63.23,108.9 l 23.1,48.04 377.32,-10.48" /><path
         id="path258"
         style="fill:#4ead8b;fill-opacity:1;fill-rule:nonzero;stroke:none"
         d="m 3560.1,2847.71 c 0,0 -127.72,-73.55 -157.07,-119.67 -29.34,-46.11 -117.38,-295.55 -117.38,-295.55 0,0 98.52,-35.64 184.46,-35.64 0,0 -8.39,-79.66 -16.76,-104.81 -8.39,-25.16 20.95,-35.64 20.95,-35.64 0,0 205.43,-56.59 358.45,-23.05 0,0 18.87,4.19 18.87,12.57 0,8.39 -2.1,29.35 -2.1,29.35 0,0 14.68,142.54 18.87,167.7 4.18,25.15 50.31,93.62 46.11,120.87 -4.19,27.26 -75.46,153.73 -75.46,153.73 0,0 -48.21,56.59 -69.17,71.26 -20.97,14.68 -79.8,34.29 -79.8,34.29 l -129.97,24.59" /><path
         id="path260"
         style="fill:#f5775b;fill-opacity:1;fill-rule:nonzero;stroke:none"
         d="m 3705.47,2893.62 c -0.07,-3.29 -12.04,-74.43 27.37,-124.79 39.4,-51.45 -116.03,-49.25 -152.15,3.29 -32.84,47.07 -29.55,54.73 -29.55,54.73 0,0 26.27,85.37 18.6,141.2 2.19,50.35 137.92,19.7 135.73,-74.43" /><path
         id="path262"
         style="fill:none;stroke:#3b8b79;stroke-width:7.90405989;stroke-linecap:butt;stroke-linejoin:miter;stroke-miterlimit:10;stroke-dasharray:none;stroke-opacity:1"
         d="m 3551.17,2636.51 -64.29,-229.18" /><path
         id="path264"
         style="fill:none;stroke:#3b8b79;stroke-width:7.90405989;stroke-linecap:butt;stroke-linejoin:miter;stroke-miterlimit:10;stroke-dasharray:none;stroke-opacity:1"
         d="m 3590.99,2623.23 c 0,0 -14.68,-44.01 -62.88,-73.36" /><path
         id="path266"
         style="fill:none;stroke:#3b8b79;stroke-width:7.90405989;stroke-linecap:butt;stroke-linejoin:miter;stroke-miterlimit:10;stroke-dasharray:none;stroke-opacity:1"
         d="m 3517.62,2677.74 c 0,0 -8.38,58.69 -75.46,62.88" /><path
         id="path268"
         style="fill:none;stroke:#3b8b79;stroke-width:7.90405989;stroke-linecap:butt;stroke-linejoin:miter;stroke-miterlimit:10;stroke-dasharray:none;stroke-opacity:1"
         d="m 3846.72,2702.89 c 0,0 68.48,-112.49 67.78,-139.05 -0.7,-26.55 -44.72,-102.01 -44.72,-102.01 l -54.5,-142.54" /><path
         id="path270"
         style="fill:none;stroke:#3b8b79;stroke-width:7.90405989;stroke-linecap:butt;stroke-linejoin:miter;stroke-miterlimit:10;stroke-dasharray:none;stroke-opacity:1"
         d="m 3609.86,2235.45 -73.37,83.84" /><path
         id="path272"
         style="fill:#f5775b;fill-opacity:1;fill-rule:nonzero;stroke:none"
         d="m 3590.29,2049.59 c 0,0 34.94,-38.44 45.42,-46.82 10.48,-8.39 81.75,-14.68 81.75,-14.68 0,0 31.44,-52.4 39.83,-50.3 8.38,2.09 6.29,8.38 6.29,8.38 0,0 2.09,94.32 -4.2,104.81 -6.29,10.48 -108.99,39.83 -108.99,39.83 l -12.58,14.68 -47.52,-55.9" /><path
         id="path274"
         style="fill:#f5775b;fill-opacity:1;fill-rule:nonzero;stroke:none"
         d="m 3316.39,2422.7 c -2.79,-8.39 -25.15,-74.06 -36.34,-107.61 -11.17,-33.53 240.38,-209.6 279.5,-240.36 l 30.74,-25.14 47.52,55.9 -220.8,220.79 32.14,72.66 -132.76,23.76" /><path
         id="path276"
         style="fill:none;stroke:#e74d4d;stroke-width:7.49009991;stroke-linecap:butt;stroke-linejoin:miter;stroke-miterlimit:10;stroke-dasharray:none;stroke-opacity:1"
         d="m 3757.29,1937.79 -13.28,58.69" /><path
         id="path278"
         style="fill:none;stroke:#e74d4d;stroke-width:7.49009991;stroke-linecap:butt;stroke-linejoin:miter;stroke-miterlimit:10;stroke-dasharray:none;stroke-opacity:1"
         d="m 3764.98,1990.89 -15.37,33.54" /><path
         id="path280"
         style="fill:none;stroke:#e74d4d;stroke-width:7.49009991;stroke-linecap:butt;stroke-linejoin:miter;stroke-miterlimit:10;stroke-dasharray:none;stroke-opacity:1"
         d="m 3759.38,2050.98 5.6,-113.19 h -18.17 l -29.35,50.3" /><path
         id="path282"
         style="fill:#d5621d;fill-opacity:1;fill-rule:nonzero;stroke:none"
         d="m 3488.65,3144.47 c 0,0 6.15,52.98 -44.13,54.28 -50.28,1.3 -87.51,-86.1 -49.32,-118.26 30.32,-28.27 47.04,-12.62 47.04,-12.62 0,0 -13.27,-43.59 -2.8,-61.29 6.46,-5.93 7.01,38.85 26.22,60.32 19.21,21.47 22.99,77.57 22.99,77.57" /><path
         id="path284"
         style="fill:#f5775b;fill-opacity:1;fill-rule:nonzero;stroke:none"
         d="m 3651,3196.72 c 0,0 46.68,-3.06 84.73,-66.72 38.05,-63.66 48.47,-212.14 34.85,-232.4 -13.62,-20.24 -65.94,-23.29 -141.18,-13.18 -79.49,10.68 -119.37,83.77 -142.38,132.6 -44.05,93.51 22.48,210.7 163.98,179.7" /><path
         id="path286"
         style="fill:none;stroke:#e74d4d;stroke-width:7.49009991;stroke-linecap:butt;stroke-linejoin:miter;stroke-miterlimit:10;stroke-dasharray:none;stroke-opacity:1"
         d="m 3700.28,2879.67 c 0,0 -54.25,1.21 -90.99,45.51" /><path
         id="path288"
         style="fill:#f1474e;fill-opacity:1;fill-rule:nonzero;stroke:none"
         d="m 3633.2,2964.49 c 2.64,-14.03 16.14,-23.28 30.18,-20.65 14.03,2.63 23.28,16.14 20.64,30.18 -2.63,14.03 -16.13,23.28 -30.17,20.64 -14.04,-2.63 -23.28,-16.13 -20.65,-30.17" /><path
         id="path290"
         style="fill:#1f4170;fill-opacity:1;fill-rule:nonzero;stroke:none"
         d="m 3676.22,3008.1 c 0.63,-3.42 3.92,-5.67 7.33,-5.03 3.42,0.64 5.67,3.93 5.02,7.34 -0.63,3.42 -3.93,5.67 -7.33,5.03 -3.42,-0.64 -5.67,-3.93 -5.02,-7.34" /><path
         id="path292"
         style="fill:#1f4170;fill-opacity:1;fill-rule:nonzero;stroke:none"
         d="m 3742.83,3020.58 c 0.64,-3.41 3.92,-5.66 7.34,-5.02 3.41,0.64 5.66,3.92 5.02,7.34 -0.64,3.42 -3.92,5.66 -7.34,5.02 -3.41,-0.64 -5.66,-3.92 -5.02,-7.34" /><path
         id="path294"
         style="fill:#d5621d;fill-opacity:1;fill-rule:nonzero;stroke:none"
         d="m 3528.14,3191.19 c 0,0 140.92,58.58 235.22,-34.54 54.91,-73.7 -16.09,-104.88 -31.3,-109.52 -15.22,-4.64 0.97,23.41 0.97,23.41 0,0 -40.04,-34.3 -91.82,-44.01 -53.52,-10.03 -5.29,18.67 -5.29,18.67 0,0 -37.77,-17.81 -48.12,-19.74 -10.36,-1.95 16.83,-61.19 14.24,-75.97 -4.32,-15.1 -44.46,56 -44.46,56 l -2.26,-45.1 7,-46.93 c 0,0 -69.48,37.01 -93.75,80.71 -24.28,43.7 -37.54,143.08 59.57,197.02" /><path
         id="path296"
         style="fill:#f35e4e;fill-opacity:1;fill-rule:nonzero;stroke:none"
         d="m 3570.76,2995.95 c 0,0 -21.62,24.14 -36.27,11.01 -14.64,-13.13 23.95,-69.72 46.75,-66.93 22.8,2.79 2.98,42.12 -10.48,55.92" /><path
         id="path298"
         style="fill:#2c3d79;fill-opacity:1;fill-rule:nonzero;stroke:none"
         d="m 3561.86,2860.01 c 0,0 49.18,-94.85 144.03,-94.85 15.81,17.56 1.75,56.2 1.75,56.2 0,0 54.46,-36.88 54.46,-82.55 0,0 47.42,-45.67 66.74,-79.04 -3.51,-12.3 -42.15,-15.81 -42.15,-15.81 0,0 33.36,-80.79 28.1,-151.05 0,0 -22.84,-14.06 -73.78,-8.79 0,0 16.97,246.29 -31.61,230.1 -5.27,-1.76 -61.47,0 -122.95,31.62 -61.47,31.61 -57.97,87.82 -57.97,87.82 0,0 8.79,52.69 36.89,52.69 l -3.51,-26.34" /><path
         id="path300"
         style="fill:#f1474e;fill-opacity:1;fill-rule:nonzero;stroke:none"
         d="m 3724.77,2993.94 c 0,0 26.35,-17.13 23.71,-30.3 -2.63,-13.17 -18.44,-6.59 -18.44,-6.59 0,0 -9.22,30.3 -5.27,36.89" /><path
         id="path302"
         style="fill:#ffffff;fill-opacity:1;fill-rule:nonzero;stroke:none"
         d="m 3756.38,2947.83 c 0,0 -30.29,-11.86 -47.42,-11.86 -13.17,-2.63 10.54,-23.71 31.61,-15.81 21.09,7.91 15.81,27.67 15.81,27.67" /><path
         id="path304"
         style="fill:#f5775b;fill-opacity:1;fill-rule:nonzero;stroke:none"
         d="m 4100.21,3042.68 c 0,0 47.42,7.9 57.97,2.63 10.54,-5.27 -2.64,-97.48 -2.64,-97.48 l -42.15,-18.44 -13.18,113.29" /><path
         id="path306"
         style="fill:#f5775b;fill-opacity:1;fill-rule:nonzero;stroke:none"
         d="m 3984.52,2912.37 c 0,0 1.39,9.78 20.72,48.98 21.44,43.46 26.27,61.3 26.27,61.3 0,0 67.87,26.27 78.82,39.4 10.95,13.14 17.51,15.32 17.51,15.32 0,0 13.13,-24.07 -6.56,-41.59 -19.71,-17.51 -37.22,-30.65 -37.22,-30.65 0,0 2.19,-50.35 -4.39,-74.43 -6.56,-24.08 -26.29,-35.76 -26.29,-35.76 l -68.86,17.43" /><path
         id="path308"
         style="fill:none;stroke:#e74d4d;stroke-width:7.49009991;stroke-linecap:butt;stroke-linejoin:miter;stroke-miterlimit:10;stroke-dasharray:none;stroke-opacity:1"
         d="m 4110.29,3025.56 -26.23,-20.43 -19.89,5.06" /><path
         id="path310"
         style="fill:none;stroke:#e74d4d;stroke-width:7.49009991;stroke-linecap:butt;stroke-linejoin:miter;stroke-miterlimit:10;stroke-dasharray:none;stroke-opacity:1"
         d="m 4101.53,3018.97 11.86,-89.58 42.15,18.44" /><path
         id="path312"
         style="fill:none;stroke:#e74d4d;stroke-width:7.49009991;stroke-linecap:butt;stroke-linejoin:miter;stroke-miterlimit:10;stroke-dasharray:none;stroke-opacity:1"
         d="m 4109.43,2946.51 38.2,26.35" /><path
         id="path314"
         style="fill:none;stroke:#e74d4d;stroke-width:7.49009991;stroke-linecap:butt;stroke-linejoin:miter;stroke-miterlimit:10;stroke-dasharray:none;stroke-opacity:1"
         d="m 4105.48,2975.49 40.83,25.03" /><path
         id="path316"
         style="fill:none;stroke:#e74d4d;stroke-width:7.49009991;stroke-linecap:butt;stroke-linejoin:miter;stroke-miterlimit:10;stroke-dasharray:none;stroke-opacity:1"
         d="m 4105.48,3007.11 34.25,21.08" /><path
         id="path318"
         style="fill:none;stroke:#292f53;stroke-width:7.90405989;stroke-linecap:butt;stroke-linejoin:miter;stroke-miterlimit:10;stroke-dasharray:none;stroke-opacity:1"
         d="m 3626.84,2159.18 c 0,0 84.32,-24.59 186.19,-7.02" /><path
         id="path320"
         style="fill:none;stroke:#ad4c1e;stroke-width:7.90405989;stroke-linecap:butt;stroke-linejoin:miter;stroke-miterlimit:10;stroke-dasharray:none;stroke-opacity:1"
         d="m 3459.99,3103.27 c 0,0 13.17,89.58 126.46,105.39" /><path
         id="path322"
         style="fill:none;stroke:#ad4c1e;stroke-width:7.90405989;stroke-linecap:butt;stroke-linejoin:miter;stroke-miterlimit:10;stroke-dasharray:none;stroke-opacity:1"
         d="m 3499.51,3074.29 c 0,0 10.54,44.79 71.13,89.58" /><path
         id="path324"
         style="fill:none;stroke:#ad4c1e;stroke-width:7.90405989;stroke-linecap:butt;stroke-linejoin:miter;stroke-miterlimit:10;stroke-dasharray:none;stroke-opacity:1"
         d="m 3465.25,3132.26 c 0,0 0,21.08 -36.88,31.61" /><path
         id="path326"
         style="fill:none;stroke:#ad4c1e;stroke-width:7.90405989;stroke-linecap:butt;stroke-linejoin:miter;stroke-miterlimit:10;stroke-dasharray:none;stroke-opacity:1"
         d="m 3457.35,3066.39 c 0,0 -10.54,-60.6 31.61,-97.48" /><path
         id="path328"
         style="fill:#a5e2ec;fill-opacity:1;fill-rule:nonzero;stroke:none"
         d="m 3472.28,3571.37 c 0,-19.4 -15.73,-35.13 -35.14,-35.13 -19.39,0 -35.12,15.73 -35.12,35.13 0,19.4 15.73,35.13 35.12,35.13 19.41,0 35.14,-15.73 35.14,-35.13" /><path
         id="path330"
         style="fill:#a5e2ec;fill-opacity:1;fill-rule:nonzero;stroke:none"
         d="m 4139.73,2208.36 c 0,-19.4 -15.73,-35.13 -35.12,-35.13 -19.41,0 -35.13,15.73 -35.13,35.13 0,19.4 15.72,35.13 35.13,35.13 19.39,0 35.12,-15.73 35.12,-35.13" /><path
         id="path332"
         style="fill:#a5e2ec;fill-opacity:1;fill-rule:nonzero;stroke:none"
         d="m 1675.42,1263.39 c 0,-19.41 -15.73,-35.13 -35.13,-35.13 -19.4,0 -35.13,15.72 -35.13,35.13 0,19.4 15.73,35.12 35.13,35.12 19.4,0 35.13,-15.72 35.13,-35.12" /><path
         id="path334"
         style="fill:#a5e2ec;fill-opacity:1;fill-rule:nonzero;stroke:none"
         d="m 1294.27,3416.8 c 0,-19.4 -15.73,-35.13 -35.13,-35.13 -19.4,0 -35.12,15.73 -35.12,35.13 0,19.4 15.72,35.13 35.12,35.13 19.4,0 35.13,-15.73 35.13,-35.13" /><path
         id="path336"
         style="fill:#5dc6e4;fill-opacity:1;fill-rule:nonzero;stroke:none"
         d="m 1722.85,1126.38 c 0,-6.78 -5.51,-12.29 -12.3,-12.29 -6.79,0 -12.29,5.51 -12.29,12.29 0,6.79 5.5,12.3 12.29,12.3 6.79,0 12.3,-5.51 12.3,-12.3" /><path
         id="path338"
         style="fill:#5dc6e4;fill-opacity:1;fill-rule:nonzero;stroke:none"
         d="m 3400.26,3316.69 c -32.98,0 -59.72,26.73 -59.72,59.71 0,32.99 26.74,59.72 59.72,59.72 32.99,0 59.73,-26.73 59.73,-59.72 0,-32.98 -26.74,-59.71 -59.73,-59.71" /><path
         id="path340"
         style="fill:none;stroke:#45b2b1;stroke-width:31.61619949;stroke-linecap:round;stroke-linejoin:round;stroke-miterlimit:4;stroke-dasharray:none;stroke-opacity:1"
         d="m 2284.91,3922.66 v 0" /><path
         id="path342"
         style="fill:none;stroke:#45b2b1;stroke-width:31.61619949;stroke-linecap:round;stroke-linejoin:round;stroke-miterlimit:4;stroke-dasharray:0, 65.8672;stroke-dashoffset:0;stroke-opacity:1"
         d="m 2350.78,3922.66 h 296.4" /><path
         id="path344"
         style="fill:none;stroke:#45b2b1;stroke-width:31.61619949;stroke-linecap:round;stroke-linejoin:round;stroke-miterlimit:4;stroke-dasharray:none;stroke-opacity:1"
         d="m 2680.11,3922.66 v 0" /><path
         id="path346"
         style="fill:none;stroke:#45b2b1;stroke-width:31.61619949;stroke-linecap:round;stroke-linejoin:round;stroke-miterlimit:10;stroke-dasharray:0, 63.2325;stroke-dashoffset:0;stroke-opacity:1"
         d="m 2906.7,1219.48 h 305.62" /><path
         id="path348"
         style="fill:#5dc6e4;fill-opacity:1;fill-rule:nonzero;stroke:none"
         d="m 2168.99,3780.39 c 0,-90.22 -73.14,-163.35 -163.35,-163.35 -90.22,0 -163.35,73.13 -163.35,163.35 0,90.22 73.13,163.35 163.35,163.35 90.21,0 163.35,-73.13 163.35,-163.35" /><path
         id="path350"
         style="fill:none;stroke:#ffffff;stroke-width:42.15499878;stroke-linecap:round;stroke-linejoin:round;stroke-miterlimit:10;stroke-dasharray:none;stroke-opacity:1"
         d="m 1942.4,3769.85 47.43,-47.42 92.21,92.21" /></g></g></svg>