<svg height="512" viewBox="0 0 64 64" width="512" xmlns="http://www.w3.org/2000/svg"><g id="Wallet-2" data-name="Wallet"><path d="m61.866 21.55-11-19.05a1 1 0 0 0 -1.366-.366l-34.64 20a1 1 0 0 0 -.366 1.366l1.444 2.5h-3.938a4.995 4.995 0 0 0 -5 5v26a5.006 5.006 0 0 0 5 5h42a3 3 0 0 0 3-3v-7.184a3 3 0 0 0 2-2.816v-2a3 3 0 0 0 -2-2.816v-15.184a2.991 2.991 0 0 0 -1.533-2.6l6.033-3.484a1 1 0 0 0 .366-1.366zm-7.866 38.45h-42a3 3 0 0 1 -3-3v-22.026a4.948 4.948 0 0 0 3 1.026h43v8h-5a3 3 0 0 0 -3 3v2a3 3 0 0 0 3 3h5v7a1 1 0 0 1 -1 1zm3-11a1 1 0 0 1 -1 1h-6a1 1 0 0 1 -1-1v-2a1 1 0 0 1 1-1h6a1 1 0 0 1 1 1zm-3-21a1 1 0 0 1 1 1v5h-43a3 3 0 1 1 0-6h5.093l1.155 2h-6.248a1 1 0 0 0 0 2h40a1 1 0 0 0 0-2h-2.768l3.468-2zm-31.74-1.043a4.021 4.021 0 0 0 1.055-3.927l6.466-3.73a9.3 9.3 0 0 0 -.295.9 8.983 8.983 0 0 0 3.688 9.8h-6.048a.964.964 0 0 0 .295-.108l.866-.5a1 1 0 1 0 -1-1.731l-.866.5a1 1 0 0 0 .3 1.839h-2.7zm30.781-4.935-6.472 3.739a8.987 8.987 0 0 0 -6.06-11.928 9.174 9.174 0 0 0 -.931-.2l6.465-3.733a4.018 4.018 0 0 0 3.928 1.053l4.129 7.147a3.993 3.993 0 0 0 -1.056 3.921zm-18.341-5.569a6.947 6.947 0 0 1 3.465-.93 7.058 7.058 0 0 1 1.823.242 7 7 0 0 1 1.722 12.8l-.07.04a7 7 0 0 1 -6.992-12.124zm10.532 13.547h-2l11.568-6.684a1 1 0 0 0 .365-1.368 1.965 1.965 0 0 1 -.2-1.506 1.993 1.993 0 0 1 .935-1.216 1 1 0 0 0 .368-1.366l-5-8.66a1 1 0 0 0 -1.368-.367 2 2 0 0 1 -2.734-.733 1 1 0 0 0 -1.366-.366l-24.24 14a1 1 0 0 0 -.366 1.366 2.008 2.008 0 0 1 -.736 2.735 1 1 0 0 0 -.368 1.358l1.619 2.807h-1.152l-3.831-6.634 32.908-19 10 17.318z"/><path d="m34.581 22.3a3.006 3.006 0 0 0 4.1 1.1 1 1 0 1 1 -.368 1.366 1 1 0 0 0 -1.732 1 3.005 3.005 0 0 0 2.6 1.5 2.927 2.927 0 0 0 .531-.069l.1.168a1 1 0 1 0 1.733-1l-.091-.157a2.994 2.994 0 0 0 -3.771-4.54 1 1 0 1 1 -1-1.732 1 1 0 0 1 1.365.366 1 1 0 1 0 1.732-1 2.963 2.963 0 0 0 -3.14-1.442l-.091-.157a1 1 0 0 0 -1.733 1l.093.16a3 3 0 0 0 -.328 3.437z"/><path d="m48.937 15.161-.865.5a1 1 0 0 0 1 1.731l.865-.5a1 1 0 1 0 -1-1.731z"/><path d="m52 47h-1a1 1 0 0 0 0 2h1a1 1 0 0 0 0-2z"/><path d="m20 56h-6a1 1 0 0 1 -1-1v-6a1 1 0 0 0 -2 0v6a3 3 0 0 0 3 3h6a1 1 0 0 0 0-2z"/><path d="m31 2h2v2h-2z"/><path d="m33 4h2v2h-2z"/><path d="m29 4h2v2h-2z"/><path d="m31 6h2v2h-2z"/><path d="m22 8h2v2h-2z"/><path d="m24 10h2v2h-2z"/><path d="m20 10h2v2h-2z"/><path d="m22 12h2v2h-2z"/><path d="m13 2h2v2h-2z"/><path d="m15 4h2v2h-2z"/><path d="m11 4h2v2h-2z"/><path d="m13 6h2v2h-2z"/></g></svg>